<svg width="24" height="24" viewBox="0 0 24 24" fill="none" xmlns="http://www.w3.org/2000/svg">
<path d="M7.69994 5.12665C7.57543 4.8773 7.38392 4.66758 7.14688 4.52099C6.90984 4.3744 6.63664 4.29675 6.35794 4.29675C6.07924 4.29675 5.80604 4.3744 5.569 4.52099C5.33196 4.66758 5.14045 4.8773 5.01594 5.12665L0.15994 14.8266C0.0451507 15.0553 -0.00924738 15.3095 0.00191745 15.5651C0.0130823 15.8207 0.0894389 16.0692 0.223728 16.287C0.358017 16.5047 0.545774 16.6845 0.76915 16.8093C0.992526 16.934 1.24409 16.9996 1.49994 16.9997C1.77882 16.9998 2.05224 16.9223 2.28947 16.7756C2.52671 16.629 2.71837 16.4192 2.84294 16.1697L3.43494 14.9997H9.28294L9.86794 16.1697C9.99251 16.4192 10.1842 16.629 10.4214 16.7756C10.6586 16.9223 10.9321 16.9998 11.2109 16.9997C11.4674 17.0004 11.7198 16.9354 11.9439 16.8108C12.1681 16.6863 12.3566 16.5063 12.4914 16.2882C12.6262 16.07 12.7029 15.8209 12.714 15.5647C12.7251 15.3085 12.6703 15.0537 12.5549 14.8247L7.69994 5.12665ZM4.93494 11.9997L6.35894 9.15165L7.78294 11.9997H4.93494Z" fill="#3E3E3E" fill-opacity="0.3"/>
<path d="M22.5 6.49963C22.1948 6.5009 21.8974 6.5952 21.6472 6.76995C21.3971 6.94469 21.2062 7.19157 21.1 7.47763C20.4436 7.16592 19.7266 7.00271 19 6.99963C17.6739 6.99963 16.4021 7.52642 15.4645 8.4641C14.5268 9.40178 14 10.6735 14 11.9996C14 13.3257 14.5268 14.5975 15.4645 15.5352C16.4021 16.4728 17.6739 16.9996 19 16.9996C19.7266 16.9965 20.4436 16.8333 21.1 16.5216C21.2252 16.8473 21.46 17.1192 21.7641 17.2904C22.0681 17.4616 22.4224 17.5214 22.7658 17.4596C23.1092 17.3978 23.4203 17.2182 23.6456 16.9517C23.8709 16.6852 23.9962 16.3485 24 15.9996V7.99963C24 7.60181 23.8419 7.22028 23.5606 6.93897C23.2793 6.65767 22.8978 6.49963 22.5 6.49963ZM19 13.9996C18.6044 13.9996 18.2177 13.8823 17.8888 13.6626C17.56 13.4428 17.3036 13.1304 17.1522 12.765C17.0009 12.3995 16.9613 11.9974 17.0384 11.6094C17.1156 11.2215 17.3061 10.8651 17.5858 10.5854C17.8655 10.3057 18.2218 10.1152 18.6098 10.0381C18.9978 9.96089 19.3999 10.0005 19.7654 10.1519C20.1308 10.3032 20.4432 10.5596 20.6629 10.8885C20.8827 11.2174 21 11.6041 21 11.9996C21 12.5301 20.7893 13.0388 20.4142 13.4138C20.0391 13.7889 19.5304 13.9996 19 13.9996Z" fill="#3E3E3E" fill-opacity="0.3"/>
</svg>
