<svg width="24" height="25" viewBox="0 0 24 25" fill="none" xmlns="http://www.w3.org/2000/svg">
<path d="M14.1812 0.707586C14.037 0.681049 13.8887 0.686543 13.7469 0.723678C13.6051 0.760813 13.4731 0.828681 13.3605 0.922474C13.2478 1.01627 13.1571 1.13369 13.0948 1.26643C13.0326 1.39917 13.0003 1.54397 13.0002 1.69059V4.56959C11.7894 4.40895 10.5579 4.52931 9.40115 4.92134C8.24438 5.31336 7.19343 5.96652 6.32978 6.83017C5.46613 7.69382 4.81297 8.74477 4.42095 9.90153C4.02893 11.0583 3.90857 12.2898 4.0692 13.5006H1.1902C1.04359 13.5007 0.898782 13.533 0.766044 13.5952C0.633306 13.6575 0.515881 13.7482 0.422088 13.8608C0.328294 13.9735 0.260426 14.1055 0.223291 14.2473C0.186156 14.3891 0.180662 14.5374 0.207199 14.6816C0.60321 16.8331 1.57983 18.8354 3.03147 20.4721C4.48311 22.1087 6.35452 23.3174 8.44337 23.9674C10.5322 24.6174 12.759 24.684 14.883 24.1601C17.007 23.6361 18.9473 22.5415 20.4942 20.9946C22.0411 19.4477 23.1357 17.5074 23.6597 15.3834C24.1836 13.2594 24.117 11.0326 23.467 8.94376C22.817 6.85491 21.6083 4.98349 19.9717 3.53186C18.335 2.08022 16.3327 1.1036 14.1812 0.707586ZM12.0002 14.5006C11.6505 14.4996 11.3073 14.4067 11.0049 14.2312C10.7024 14.0557 10.4515 13.8037 10.2772 13.5006H8.0002C7.73498 13.5006 7.48063 13.3952 7.29309 13.2077C7.10556 13.0202 7.0002 12.7658 7.0002 12.5006C7.0002 12.2354 7.10556 11.981 7.29309 11.7935C7.48063 11.6059 7.73498 11.5006 8.0002 11.5006H10.2772C10.4515 11.201 10.7006 10.9519 11.0002 10.7776V7.50059C11.0002 7.23537 11.1056 6.98102 11.2931 6.79348C11.4806 6.60594 11.735 6.50059 12.0002 6.50059C12.2654 6.50059 12.5198 6.60594 12.7073 6.79348C12.8948 6.98102 13.0002 7.23537 13.0002 7.50059V10.7776C13.3816 10.9967 13.6799 11.3358 13.8486 11.7421C14.0172 12.1484 14.0468 12.599 13.9327 13.0239C13.8186 13.4487 13.5672 13.8239 13.2177 14.091C12.8681 14.3581 12.4401 14.5021 12.0002 14.5006ZM9.9722 0.600586C10.17 0.600586 10.3633 0.659235 10.5278 0.769116C10.6922 0.878998 10.8204 1.03518 10.8961 1.2179C10.9718 1.40063 10.9916 1.6017 10.953 1.79568C10.9144 1.98966 10.8192 2.16784 10.6793 2.30769C10.5395 2.44755 10.3613 2.54279 10.1673 2.58137C9.97331 2.61996 9.77224 2.60015 9.58952 2.52447C9.40679 2.44878 9.25061 2.32061 9.14073 2.15616C9.03085 1.99171 8.9722 1.79837 8.9722 1.60059C8.9722 1.33537 9.07756 1.08102 9.26509 0.893479C9.45263 0.705943 9.70698 0.600586 9.9722 0.600586ZM5.8722 2.35659C6.06998 2.35659 6.26332 2.41523 6.42777 2.52512C6.59222 2.635 6.72039 2.79118 6.79608 2.9739C6.87177 3.15663 6.89157 3.3577 6.85298 3.55168C6.8144 3.74566 6.71916 3.92384 6.57931 4.06369C6.43945 4.20355 6.26127 4.29879 6.06729 4.33737C5.87331 4.37596 5.67224 4.35615 5.48952 4.28047C5.30679 4.20478 5.15061 4.07661 5.04073 3.91216C4.93085 3.74771 4.8722 3.55437 4.8722 3.35659C4.87167 3.09154 4.97638 2.83713 5.16332 2.64925C5.35027 2.46136 5.60416 2.35538 5.8692 2.35459L5.8722 2.35659ZM2.7792 5.34159C2.97698 5.34159 3.17032 5.40024 3.33477 5.51012C3.49922 5.62 3.62739 5.77618 3.70308 5.9589C3.77877 6.14163 3.79857 6.3427 3.75998 6.53668C3.7214 6.73066 3.62616 6.90884 3.48631 7.04869C3.34645 7.18855 3.16827 7.28379 2.97429 7.32237C2.78031 7.36096 2.57924 7.34115 2.39652 7.26547C2.21379 7.18978 2.05761 7.06161 1.94773 6.89716C1.83785 6.73271 1.7792 6.53937 1.7792 6.34159C1.7792 6.07637 1.88456 5.82202 2.07209 5.63448C2.25963 5.44694 2.51398 5.34159 2.7792 5.34159ZM1.1792 9.50859C1.37698 9.50859 1.57032 9.56723 1.73477 9.67712C1.89922 9.787 2.02739 9.94318 2.10308 10.1259C2.17877 10.3086 2.19857 10.5097 2.15998 10.7037C2.1214 10.8977 2.02616 11.0758 1.88631 11.2157C1.74645 11.3555 1.56827 11.4508 1.37429 11.4894C1.18031 11.528 0.979242 11.5082 0.796516 11.4325C0.61379 11.3568 0.457611 11.2286 0.34773 11.0642C0.237848 10.8997 0.179199 10.7064 0.179199 10.5086C0.179199 10.2437 0.284281 9.98966 0.471385 9.80219C0.658489 9.61471 0.912329 9.50912 1.1772 9.50859H1.1792Z" fill="#FFB800"/>
</svg>
