<svg width="30" height="30" viewBox="0 0 30 30" fill="none" xmlns="http://www.w3.org/2000/svg">
<path d="M24.375 0H5.625C2.51982 0.00345703 0.00345703 2.51982 0 5.625V24.375C0.00345703 27.4802 2.51982 29.9965 5.625 30H20.605C22.0977 30.0045 23.5302 29.4112 24.5825 28.3525L28.3525 24.5837C29.4106 23.5311 30.0039 22.0989 30 20.6062V5.625C29.9965 2.51982 27.4802 0.00345703 24.375 0ZM11.8488 9.72374C12.0013 10.1276 11.7976 10.5787 11.3938 10.7313C10.9899 10.8838 10.5388 10.6801 10.3863 10.2763L9.96749 9.16628H7.07876L6.65502 10.2775C6.49089 10.6765 6.03433 10.867 5.63531 10.7028C5.25146 10.5449 5.05804 10.1143 5.19504 9.72251L7.66376 3.23877C7.8031 2.88023 8.14787 2.64363 8.53253 2.64252C8.90952 2.64258 9.24902 2.87086 9.39128 3.22002L11.8488 9.72374ZM13.2588 3.42375C13.2588 2.99226 13.6086 2.64252 14.04 2.64252C14.4715 2.64252 14.8212 2.99232 14.8212 3.42375V10C14.8212 10.4315 14.4714 10.7812 14.04 10.7812C13.6085 10.7812 13.2588 10.4314 13.2588 10V3.42375ZM21.25 18.75C19.8693 18.75 18.75 19.8693 18.75 21.25V26.25H5.625C4.58947 26.25 3.75 25.4105 3.75 24.375V13.75H26.25V18.75H21.25Z" fill="#B98EFF"/>
<path d="M8.5 6L7.5 8H9.5L8.5 6Z" fill="#B98EFF"/>
</svg>
