<svg width="24" height="24" viewBox="0 0 24 24" fill="none" xmlns="http://www.w3.org/2000/svg">
<g clip-path="url(#clip0_25_212)">
<path d="M22.5 21H5.5C4.83696 21 4.20107 20.7366 3.73223 20.2678C3.26339 19.7989 3 19.163 3 18.5V1.5C3 1.10218 2.84196 0.720644 2.56066 0.43934C2.27936 0.158035 1.89782 0 1.5 0C1.10218 0 0.720644 0.158035 0.43934 0.43934C0.158035 0.720644 0 1.10218 0 1.5L0 18.5C0.00158817 19.9582 0.581561 21.3562 1.61267 22.3873C2.64377 23.4184 4.0418 23.9984 5.5 24H22.5C22.8978 24 23.2794 23.842 23.5607 23.5607C23.842 23.2794 24 22.8978 24 22.5C24 22.1022 23.842 21.7206 23.5607 21.4393C23.2794 21.158 22.8978 21 22.5 21Z" fill="#3E3E3E"/>
<path d="M9.50024 9C9.10242 9 8.72089 9.15804 8.43958 9.43934C8.15828 9.72064 8.00024 10.1022 8.00024 10.5V17.5C8.00024 17.8978 8.15828 18.2794 8.43958 18.5607C8.72089 18.842 9.10242 19 9.50024 19C9.89807 19 10.2796 18.842 10.5609 18.5607C10.8422 18.2794 11.0002 17.8978 11.0002 17.5V10.5C11.0002 10.1022 10.8422 9.72064 10.5609 9.43934C10.2796 9.15804 9.89807 9 9.50024 9Z" fill="#3E3E3E"/>
<path d="M14.0002 13.5V17.5C14.0002 17.8978 14.1583 18.2794 14.4396 18.5607C14.7209 18.842 15.1024 19 15.5002 19C15.8981 19 16.2796 18.842 16.5609 18.5607C16.8422 18.2794 17.0002 17.8978 17.0002 17.5V13.5C17.0002 13.1022 16.8422 12.7206 16.5609 12.4393C16.2796 12.158 15.8981 12 15.5002 12C15.1024 12 14.7209 12.158 14.4396 12.4393C14.1583 12.7206 14.0002 13.1022 14.0002 13.5Z" fill="#3E3E3E"/>
<path d="M20.0002 9.49994V17.4999C20.0002 17.8977 20.1583 18.2793 20.4396 18.5606C20.7209 18.8419 21.1024 18.9999 21.5002 18.9999C21.8981 18.9999 22.2796 18.8419 22.5609 18.5606C22.8422 18.2793 23.0002 17.8977 23.0002 17.4999V9.49994C23.0002 9.10211 22.8422 8.72058 22.5609 8.43928C22.2796 8.15797 21.8981 7.99994 21.5002 7.99994C21.1024 7.99994 20.7209 8.15797 20.4396 8.43928C20.1583 8.72058 20.0002 9.10211 20.0002 9.49994Z" fill="#3E3E3E"/>
<path d="M6.00006 7.49997C6.34053 7.5007 6.67093 7.38456 6.93606 7.17097L9.21406 5.34997C9.67405 4.98069 10.2543 4.79439 10.8433 4.82687C11.4323 4.85936 11.9885 5.10834 12.4051 5.52597C13.3665 6.47516 14.6472 7.03186 15.997 7.08733C17.3469 7.14281 18.669 6.69307 19.705 5.82597L23.469 2.64097C23.6294 2.51702 23.763 2.36185 23.8617 2.18484C23.9605 2.00783 24.0223 1.81264 24.0435 1.61106C24.0647 1.40949 24.0448 1.20571 23.9851 1.01202C23.9253 0.818343 23.827 0.638778 23.6959 0.484173C23.5648 0.329568 23.4038 0.203129 23.2225 0.112493C23.0412 0.0218564 22.8434 -0.0310981 22.6411 -0.0431731C22.4388 -0.0552481 22.2361 -0.026193 22.0453 0.0422376C21.8545 0.110668 21.6796 0.217055 21.531 0.354974L17.768 3.53997C17.3072 3.92429 16.7195 4.12292 16.12 4.09703C15.5204 4.07114 14.9521 3.82259 14.5261 3.39997C13.5881 2.45941 12.3359 1.89837 11.0096 1.82455C9.68337 1.75072 8.37659 2.16931 7.34006 2.99997L5.06307 4.82897C4.82048 5.02317 4.64419 5.28792 4.55856 5.58664C4.47293 5.88535 4.48219 6.20329 4.58506 6.49652C4.68792 6.78974 4.87932 7.04378 5.13279 7.22354C5.38627 7.40329 5.68932 7.49989 6.00006 7.49997Z" fill="#3E3E3E"/>
</g>
<defs>
<clipPath id="clip0_25_212">
<rect width="24" height="24" fill="white"/>
</clipPath>
</defs>
</svg>
