<svg width="24" height="23" viewBox="0 0 24 23" fill="none" xmlns="http://www.w3.org/2000/svg">
<path d="M19.4201 8.59212C19.4736 8.23059 19.5003 7.86559 19.5001 7.50012C19.5001 5.511 18.7099 3.60334 17.3034 2.19682C15.8969 0.790298 13.9892 0.00012207 12.0001 0.00012207C10.011 0.00012207 8.10331 0.790298 6.69678 2.19682C5.29026 3.60334 4.50008 5.511 4.50008 7.50012C4.49984 7.86559 4.52658 8.23059 4.58008 8.59212C3.60193 9.00546 2.72269 9.6218 2.00056 10.4004C1.27843 11.1789 0.729856 12.102 0.391145 13.1084C0.0524336 14.1148 -0.0686957 15.1817 0.0357716 16.2385C0.140239 17.2952 0.467921 18.3177 0.997136 19.2384C1.52635 20.159 2.24503 20.9568 3.10563 21.5789C3.96623 22.201 4.94913 22.6332 5.98928 22.847C7.02944 23.0609 8.10314 23.0513 9.13934 22.8191C10.1756 22.587 11.1506 22.1374 12.0001 21.5001C12.8489 22.1422 13.8246 22.5963 14.8624 22.8322C15.9002 23.0681 16.9763 23.0804 18.0192 22.8684C19.0621 22.6563 20.048 22.2247 20.9113 21.6023C21.7745 20.9798 22.4954 20.1808 23.0261 19.2582C23.5567 18.3357 23.8849 17.3108 23.9889 16.2516C24.0929 15.1924 23.9703 14.1232 23.6292 13.1151C23.2881 12.107 22.7364 11.183 22.0107 10.4045C21.2849 9.62606 20.4019 9.01097 19.4201 8.60012V8.59212ZM12.0001 3.00012C13.1932 3.00145 14.337 3.47598 15.1806 4.3196C16.0242 5.16323 16.4988 6.30705 16.5001 7.50012C16.4999 7.66717 16.4905 7.83409 16.4721 8.00012C14.8585 8.00351 13.2894 8.52981 12.0001 9.50012C10.7108 8.52981 9.14171 8.00351 7.52808 8.00012C7.50965 7.83409 7.5003 7.66717 7.50008 7.50012C7.50141 6.30705 7.97594 5.16323 8.81957 4.3196C9.66319 3.47598 10.807 3.00145 12.0001 3.00012ZM3.00008 15.5001C3.00078 14.6421 3.2465 13.8021 3.70834 13.079C4.17017 12.3558 4.82892 11.7796 5.60708 11.4181C6.4269 12.7506 7.64052 13.7955 9.08008 14.4081C8.83437 16.0764 9.1585 17.7788 10.0001 19.2401C9.32264 19.6928 8.53501 19.953 7.72124 19.993C6.90748 20.0331 6.09811 19.8514 5.37949 19.4675C4.66088 19.0835 4.05999 18.5117 3.64093 17.813C3.22188 17.1143 3.00038 16.3149 3.00008 15.5001ZM16.5001 20.0001C15.6097 20.0014 14.7391 19.7368 14.0001 19.2401C14.8417 17.7788 15.1658 16.0764 14.9201 14.4081C16.3597 13.7955 17.5733 12.7506 18.3931 11.4181C19.3228 11.8495 20.0774 12.5853 20.532 13.5038C20.9867 14.4224 21.1142 15.4686 20.8934 16.4694C20.6727 17.4703 20.1169 18.3658 19.318 19.0078C18.5191 19.6498 17.525 19.9999 16.5001 20.0001Z" fill="#3E3E3E"/>
</svg>
