<svg width="20" height="25" viewBox="0 0 20 25" fill="none" xmlns="http://www.w3.org/2000/svg">
<path d="M18.977 11.764C18.613 6.224 13.474 1.541 7.731 1.5C7.55555 1.19612 7.30324 0.943739 6.9994 0.768212C6.69557 0.592684 6.35089 0.500184 6 0.5L4 0.5C2.93913 0.5 1.92172 0.921427 1.17157 1.67157C0.421427 2.42172 0 3.43913 0 4.5V5.5H2C2.26522 5.5 2.51957 5.60536 2.70711 5.79289C2.89464 5.98043 3 6.23478 3 6.5C3 6.76522 2.89464 7.01957 2.70711 7.20711C2.51957 7.39464 2.26522 7.5 2 7.5H0V9.5H2C2.26522 9.5 2.51957 9.60536 2.70711 9.79289C2.89464 9.98043 3 10.2348 3 10.5C3 10.7652 2.89464 11.0196 2.70711 11.2071C2.51957 11.3946 2.26522 11.5 2 11.5H0V13.5H2C2.26522 13.5 2.51957 13.6054 2.70711 13.7929C2.89464 13.9804 3 14.2348 3 14.5C3 14.7652 2.89464 15.0196 2.70711 15.2071C2.51957 15.3946 2.26522 15.5 2 15.5H0V17.5H2C2.26522 17.5 2.51957 17.6054 2.70711 17.7929C2.89464 17.9804 3 18.2348 3 18.5C3 18.7652 2.89464 19.0196 2.70711 19.2071C2.51957 19.3946 2.26522 19.5 2 19.5H0V20.5C0 21.5609 0.421427 22.5783 1.17157 23.3284C1.92172 24.0786 2.93913 24.5 4 24.5H6C6.35089 24.4998 6.69557 24.4073 6.9994 24.2318C7.30324 24.0563 7.55555 23.8039 7.731 23.5H8C9.50472 23.4974 10.993 23.1873 12.3736 22.5887C13.7541 21.9901 14.9977 21.1157 16.028 20.019C17.0634 18.9216 17.86 17.6214 18.3676 16.2006C18.8752 14.7797 19.0827 13.2691 18.977 11.764ZM7.947 16.489C7.69297 16.4755 7.45361 16.3657 7.27768 16.182C7.10174 15.9983 7.00244 15.7544 7 15.5V9.5C7 9.23478 7.10536 8.98043 7.29289 8.79289C7.48043 8.60536 7.73478 8.5 8 8.5C8.55846 8.49995 9.11074 8.61684 9.62129 8.84315C10.1318 9.06946 10.5893 9.40016 10.9644 9.81398C11.3394 10.2278 11.6236 10.7156 11.7987 11.2459C11.9738 11.7762 12.0359 12.3372 11.981 12.893C11.8588 13.8796 11.3824 14.7882 10.6403 15.4497C9.89822 16.1112 8.94108 16.4805 7.947 16.489Z" fill="#0077FF"/>
</svg>
