<svg width="32" height="32" viewBox="0 0 32 32" fill="none" xmlns="http://www.w3.org/2000/svg">
<path d="M24.6667 2.66667H24V2C24 1.46957 23.7893 0.960859 23.4142 0.585786C23.0391 0.210714 22.5304 0 22 0V0C21.4696 0 20.9609 0.210714 20.5858 0.585786C20.2107 0.960859 20 1.46957 20 2V2.66667H12V2C12 1.46957 11.7893 0.960859 11.4142 0.585786C11.0391 0.210714 10.5304 0 10 0V0C9.46957 0 8.96086 0.210714 8.58579 0.585786C8.21071 0.960859 8 1.46957 8 2V2.66667H7.33333C5.38841 2.66667 3.52315 3.43928 2.14788 4.81455C0.772617 6.18982 0 8.05508 0 10L0 24.6667C0 26.6116 0.772617 28.4769 2.14788 29.8521C3.52315 31.2274 5.38841 32 7.33333 32H24.6667C26.6116 32 28.4769 31.2274 29.8521 29.8521C31.2274 28.4769 32 26.6116 32 24.6667V10C32 8.05508 31.2274 6.18982 29.8521 4.81455C28.4769 3.43928 26.6116 2.66667 24.6667 2.66667ZM24.6667 28H7.33333C6.44928 28 5.60143 27.6488 4.97631 27.0237C4.35119 26.3986 4 25.5507 4 24.6667V13.3333H28V24.6667C28 25.5507 27.6488 26.3986 27.0237 27.0237C26.3986 27.6488 25.5507 28 24.6667 28Z" fill="#3E3E3E"/>
</svg>
