<svg width="24" height="25" viewBox="0 0 24 25" fill="none" xmlns="http://www.w3.org/2000/svg">
<path d="M24 12.5C24 15.6826 22.7357 18.7348 20.4853 20.9853C18.2348 23.2357 15.1826 24.5 12 24.5C8.8174 24.5 5.76515 23.2357 3.51472 20.9853C1.26428 18.7348 0 15.6826 0 12.5C0 12.1022 0.158035 11.7206 0.43934 11.4393C0.720644 11.158 1.10218 11 1.5 11C1.89782 11 2.27936 11.158 2.56066 11.4393C2.84196 11.7206 3 12.1022 3 12.5C3 14.28 3.52784 16.0201 4.51677 17.5001C5.50571 18.9802 6.91131 20.1337 8.55585 20.8149C10.2004 21.4961 12.01 21.6743 13.7558 21.3271C15.5016 20.9798 17.1053 20.1226 18.364 18.864C19.6226 17.6053 20.4798 16.0016 20.8271 14.2558C21.1743 12.51 20.9961 10.7004 20.3149 9.05585C19.6337 7.41131 18.4802 6.00571 17.0001 5.01677C15.5201 4.02784 13.78 3.5 12 3.5C11.6022 3.5 11.2206 3.34196 10.9393 3.06066C10.658 2.77936 10.5 2.39782 10.5 2C10.5 1.60218 10.658 1.22064 10.9393 0.93934C11.2206 0.658035 11.6022 0.5 12 0.5C15.1815 0.503441 18.2318 1.76883 20.4815 4.01852C22.7312 6.26821 23.9966 9.31846 24 12.5ZM7 12.5C7 12.8978 7.15804 13.2794 7.43934 13.5607C7.72064 13.842 8.10218 14 8.5 14H10.69C11.0699 14.3344 11.5629 14.5116 12.0688 14.4955C12.5747 14.4794 13.0554 14.2712 13.4133 13.9133C13.7712 13.5554 13.9794 13.0747 13.9955 12.5688C14.0116 12.0629 13.8344 11.5699 13.5 11.19V7C13.5 6.60218 13.342 6.22064 13.0607 5.93934C12.7794 5.65804 12.3978 5.5 12 5.5C11.6022 5.5 11.2206 5.65804 10.9393 5.93934C10.658 6.22064 10.5 6.60218 10.5 7V11H8.5C8.10218 11 7.72064 11.158 7.43934 11.4393C7.15804 11.7206 7 12.1022 7 12.5ZM6.74 5.394C7.03667 5.394 7.32668 5.30603 7.57336 5.1412C7.82003 4.97638 8.01229 4.74211 8.12582 4.46803C8.23935 4.19394 8.26906 3.89234 8.21118 3.60136C8.1533 3.31039 8.01044 3.04312 7.80066 2.83334C7.59088 2.62356 7.32361 2.4807 7.03264 2.42282C6.74166 2.36494 6.44006 2.39465 6.16597 2.50818C5.89189 2.62171 5.65762 2.81397 5.4928 3.06064C5.32797 3.30732 5.24 3.59733 5.24 3.894C5.24 4.29182 5.39804 4.67336 5.67934 4.95466C5.96064 5.23596 6.34218 5.394 6.74 5.394ZM2.913 9.25C3.20967 9.25 3.49968 9.16203 3.74636 8.9972C3.99303 8.83238 4.18529 8.59811 4.29882 8.32403C4.41235 8.04994 4.44206 7.74834 4.38418 7.45736C4.3263 7.16639 4.18344 6.89912 3.97366 6.68934C3.76388 6.47956 3.49661 6.3367 3.20564 6.27882C2.91466 6.22094 2.61306 6.25065 2.33897 6.36418C2.06489 6.47771 1.83062 6.66997 1.6658 6.91664C1.50097 7.16332 1.413 7.45333 1.413 7.75C1.413 8.14782 1.57104 8.52936 1.85234 8.81066C2.13364 9.09196 2.51518 9.25 2.913 9.25Z" fill="#3E3E3E"/>
</svg>
