<svg width="24" height="24" viewBox="0 0 24 24" fill="none" xmlns="http://www.w3.org/2000/svg">
<g clip-path="url(#clip0_31_269)">
<path d="M22.4193 9.99988C21.3228 8.51093 19.7588 7.43248 17.9773 6.93687C17.4217 4.89957 16.1002 3.15584 14.289 2.07012C12.4778 0.984396 10.317 0.640704 8.2583 1.11087C7.08422 1.37936 5.98397 1.90398 5.03625 2.64722C4.08854 3.39045 3.31677 4.33394 2.77617 5.41018C2.23556 6.48643 1.93946 7.66884 1.90906 8.87285C1.87866 10.0769 2.1147 11.2727 2.6003 12.3749C1.58568 13.0415 0.806667 14.0106 0.373735 15.1448C-0.0591964 16.279 -0.124074 17.5207 0.188302 18.6939C0.531711 19.9498 1.28431 21.0553 2.3269 21.8353C3.3695 22.6152 4.6425 23.0251 5.9443 22.9999H8.5003C8.89813 22.9999 9.27966 22.8418 9.56096 22.5605C9.84227 22.2792 10.0003 21.8977 10.0003 21.4999C10.0003 21.102 9.84227 20.7205 9.56096 20.4392C9.27966 20.1579 8.89813 19.9999 8.5003 19.9999H5.9443C5.31224 20.0171 4.69195 19.8267 4.17833 19.4579C3.66472 19.0892 3.28606 18.5623 3.1003 17.9579C3.00296 17.6003 2.9776 17.2269 3.02567 16.8594C3.07373 16.4919 3.19429 16.1376 3.38033 15.817C3.56637 15.4965 3.81421 15.216 4.10946 14.992C4.40471 14.768 4.7415 14.6048 5.1003 14.5119C5.33829 14.4505 5.55753 14.3315 5.73876 14.1655C5.91999 13.9995 6.05764 13.7915 6.13962 13.5598C6.22159 13.328 6.24538 13.0798 6.20888 12.8367C6.17238 12.5936 6.07672 12.3633 5.9303 12.1659C5.45104 11.5194 5.12834 10.7706 4.98761 9.97829C4.84689 9.18597 4.89196 8.37181 5.1193 7.59987C5.36932 6.73618 5.84324 5.95393 6.49302 5.33242C7.1428 4.71091 7.94534 4.27224 8.8193 4.06087C9.23367 3.96391 9.65775 3.91459 10.0833 3.91387C11.2087 3.91051 12.3041 4.27657 13.2013 4.95587C14.3021 5.79115 15.0264 7.02907 15.2153 8.39787C15.2578 8.7258 15.4068 9.03068 15.6396 9.26558C15.8723 9.50048 16.1758 9.65237 16.5033 9.69788C17.1953 9.7927 17.8613 10.0253 18.462 10.3818C19.0626 10.7384 19.5857 11.2117 20.0003 11.7739C20.4138 12.3369 20.7086 12.978 20.8667 13.6584C21.0249 14.3388 21.0431 15.0442 20.9203 15.7319C20.7933 16.4095 20.5284 17.0537 20.142 17.6247C19.7557 18.1956 19.2561 18.6811 18.6743 19.0509C18.4666 19.1879 18.2962 19.3744 18.1786 19.5937C18.0609 19.813 17.9997 20.058 18.0003 20.3069C17.9981 20.5778 18.0686 20.8444 18.2045 21.0789C18.3404 21.3133 18.5367 21.507 18.773 21.6398C19.0092 21.7726 19.2767 21.8396 19.5476 21.8338C19.8186 21.828 20.083 21.7496 20.3133 21.6069C21.246 21.008 22.0444 20.2222 22.658 19.2991C23.2717 18.376 23.6872 17.3357 23.8783 16.2439C24.0713 15.1586 24.0415 14.0453 23.7906 12.9719C23.5398 11.8985 23.0732 10.8873 22.4193 9.99988Z" fill="#3E3E3E" fill-opacity="0.2"/>
<path d="M15.5002 22.4999V16.9999H17.1632C17.3609 16.9999 17.5542 16.9412 17.7186 16.8313C17.883 16.7215 18.0112 16.5653 18.0869 16.3826C18.1625 16.1999 18.1823 15.9989 18.1438 15.8049C18.1052 15.611 18.01 15.4328 17.8702 15.2929L14.7072 12.1299C14.5197 11.9425 14.2653 11.8372 14.0002 11.8372C13.735 11.8372 13.4807 11.9425 13.2932 12.1299L10.1302 15.2929C9.99038 15.4328 9.89517 15.611 9.85661 15.8049C9.81804 15.9989 9.83784 16.1999 9.91351 16.3826C9.98918 16.5653 10.1173 16.7215 10.2817 16.8313C10.4461 16.9412 10.6394 16.9999 10.8372 16.9999H12.5002V22.4999C12.5002 22.8978 12.6582 23.2793 12.9395 23.5606C13.2208 23.8419 13.6024 23.9999 14.0002 23.9999C14.398 23.9999 14.7795 23.8419 15.0608 23.5606C15.3421 23.2793 15.5002 22.8978 15.5002 22.4999Z" fill="#3E3E3E" fill-opacity="0.2"/>
</g>
<defs>
<clipPath id="clip0_31_269">
<rect width="24" height="24" fill="white"/>
</clipPath>
</defs>
</svg>
