<svg width="24" height="24" viewBox="0 0 24 24" fill="none" xmlns="http://www.w3.org/2000/svg">
<g clip-path="url(#clip0_25_220)">
<path d="M18.0002 13.4999V7.57093C18.0036 6.71662 17.8374 5.87013 17.5112 5.08051C17.1851 4.2909 16.7055 3.57385 16.1002 2.97093L15.0252 1.89993C14.4223 1.29467 13.7053 0.815067 12.9157 0.488922C12.126 0.162777 11.2796 -0.0034315 10.4252 -7.21461e-05H7.50024C6.04204 0.00151602 4.64402 0.581489 3.61291 1.61259C2.5818 2.6437 2.00183 4.04173 2.00024 5.49993V13.4999C2.00183 14.9581 2.5818 16.3562 3.61291 17.3873C4.64402 18.4184 6.04204 18.9983 7.50024 18.9999H12.5002C13.9584 18.9983 15.3565 18.4184 16.3876 17.3873C17.4187 16.3562 17.9987 14.9581 18.0002 13.4999ZM5.00024 13.4999V5.49993C5.00024 4.83689 5.26364 4.201 5.73248 3.73216C6.20132 3.26332 6.8372 2.99993 7.50024 2.99993H10.4292C10.6208 3.00294 10.8118 3.02167 11.0002 3.05593V4.99993C11.0002 5.53036 11.211 6.03907 11.586 6.41414C11.9611 6.78922 12.4698 6.99993 13.0002 6.99993H14.9442C14.9785 7.18841 14.9972 7.37938 15.0002 7.57093V13.4999C15.0002 14.163 14.7369 14.7989 14.268 15.2677C13.7992 15.7365 13.1633 15.9999 12.5002 15.9999H7.50024C6.8372 15.9999 6.20132 15.7365 5.73248 15.2677C5.26364 14.7989 5.00024 14.163 5.00024 13.4999ZM23.0002 8.49993V18.4999C22.9987 19.9581 22.4187 21.3562 21.3876 22.3873C20.3565 23.4184 18.9584 23.9983 17.5002 23.9999H9.50024C9.10242 23.9999 8.72089 23.8419 8.43958 23.5606C8.15828 23.2793 8.00024 22.8978 8.00024 22.4999C8.00024 22.1021 8.15828 21.7206 8.43958 21.4393C8.72089 21.158 9.10242 20.9999 9.50024 20.9999H17.5002C18.1633 20.9999 18.7992 20.7365 19.268 20.2677C19.7369 19.7989 20.0002 19.163 20.0002 18.4999V8.49993C20.0002 8.1021 20.1583 7.72057 20.4396 7.43927C20.7209 7.15796 21.1024 6.99993 21.5002 6.99993C21.8981 6.99993 22.2796 7.15796 22.5609 7.43927C22.8422 7.72057 23.0002 8.1021 23.0002 8.49993Z" fill="#3E3E3E"/>
</g>
<defs>
<clipPath id="clip0_25_220">
<rect width="24" height="24" fill="white"/>
</clipPath>
</defs>
</svg>
