<svg width="22" height="24" viewBox="0 0 22 24" fill="none" xmlns="http://www.w3.org/2000/svg">
<path d="M16.4995 0H5.49951C4.04139 0.00185226 2.64352 0.58191 1.61247 1.61296C0.581421 2.64401 0.00136398 4.04188 -0.000488281 5.5V20.472C0.000263759 21.1724 0.211114 21.8564 0.604798 22.4356C0.998481 23.0149 1.55689 23.4627 2.20781 23.7212C2.85874 23.9796 3.57223 24.0369 4.25604 23.8855C4.93985 23.7341 5.56251 23.3811 6.04351 22.872L10.9555 17.672L15.9685 22.922C16.451 23.4272 17.0737 23.7764 17.7564 23.9248C18.4391 24.0731 19.1505 24.0137 19.7992 23.7543C20.4479 23.4949 21.004 23.0473 21.3962 22.4691C21.7883 21.8909 21.9984 21.2086 21.9995 20.51V5.5C21.9977 4.04188 21.4176 2.64401 20.3866 1.61296C19.3555 0.58191 17.9576 0.00185226 16.4995 0V0ZM18.9995 20.51C18.9993 20.6097 18.9693 20.7071 18.9134 20.7896C18.8574 20.8722 18.778 20.9361 18.6855 20.9732C18.5929 21.0103 18.4914 21.0188 18.3939 20.9978C18.2964 20.9767 18.2075 20.927 18.1385 20.855L12.0385 14.464C11.898 14.3168 11.7289 14.1998 11.5417 14.12C11.3545 14.0403 11.153 13.9994 10.9495 14C10.7461 14.0006 10.5449 14.0426 10.3582 14.1234C10.1715 14.2042 10.0032 14.3221 9.86351 14.47L3.86351 20.815C3.79655 20.8906 3.7074 20.9431 3.6088 20.965C3.5102 20.987 3.4072 20.9771 3.31451 20.937C3.21904 20.9036 3.13685 20.8403 3.08012 20.7566C3.02339 20.6728 2.99512 20.5731 2.99951 20.472V5.5C2.99951 4.83696 3.2629 4.20107 3.73174 3.73223C4.20059 3.26339 4.83647 3 5.49951 3H16.4995C17.1626 3 17.7984 3.26339 18.2673 3.73223C18.7361 4.20107 18.9995 4.83696 18.9995 5.5V20.51Z" fill="#FFB800"/>
</svg>
