<svg width="24" height="17" viewBox="0 0 24 17" fill="none" xmlns="http://www.w3.org/2000/svg">
<path d="M19 0.500488H5C3.67441 0.502076 2.40356 1.02937 1.46622 1.96671C0.528882 2.90405 0.00158786 4.17489 0 5.50049L0 11.5005C0.00158786 12.8261 0.528882 14.0969 1.46622 15.0343C2.40356 15.9716 3.67441 16.4989 5 16.5005H19C20.3256 16.4989 21.5964 15.9716 22.5338 15.0343C23.4711 14.0969 23.9984 12.8261 24 11.5005V5.50049C23.9984 4.17489 23.4711 2.90405 22.5338 1.96671C21.5964 1.02937 20.3256 0.502076 19 0.500488ZM4 13.5005C3.80222 13.5005 3.60888 13.4418 3.44443 13.332C3.27998 13.2221 3.15181 13.0659 3.07612 12.8832C3.00043 12.7004 2.98063 12.4994 3.01921 12.3054C3.0578 12.1114 3.15304 11.9332 3.29289 11.7934C3.43275 11.6535 3.61093 11.5583 3.80491 11.5197C3.99889 11.4811 4.19996 11.5009 4.38268 11.5766C4.56541 11.6523 4.72159 11.7805 4.83147 11.9449C4.94135 12.1094 5 12.3027 5 12.5005C5 12.7657 4.89464 13.0201 4.70711 13.2076C4.51957 13.3951 4.26522 13.5005 4 13.5005ZM4 5.50049C3.80222 5.50049 3.60888 5.44184 3.44443 5.33196C3.27998 5.22208 3.15181 5.0659 3.07612 4.88317C3.00043 4.70045 2.98063 4.49938 3.01921 4.3054C3.0578 4.11142 3.15304 3.93323 3.29289 3.79338C3.43275 3.65353 3.61093 3.55829 3.80491 3.5197C3.99889 3.48112 4.19996 3.50092 4.38268 3.57661C4.56541 3.6523 4.72159 3.78047 4.83147 3.94492C4.94135 4.10937 5 4.30271 5 4.50049C5 4.7657 4.89464 5.02006 4.70711 5.20759C4.51957 5.39513 4.26522 5.50049 4 5.50049ZM12 12.5005C11.2089 12.5005 10.4355 12.2659 9.77772 11.8264C9.11992 11.3868 8.60723 10.7621 8.30448 10.0312C8.00173 9.30032 7.92252 8.49605 8.07686 7.72013C8.2312 6.9442 8.61216 6.23147 9.17157 5.67206C9.73098 5.11265 10.4437 4.73169 11.2196 4.57735C11.9956 4.42301 12.7998 4.50222 13.5307 4.80497C14.2616 5.10772 14.8864 5.62041 15.3259 6.27821C15.7654 6.936 16 7.70936 16 8.50049C16 9.56135 15.5786 10.5788 14.8284 11.3289C14.0783 12.0791 13.0609 12.5005 12 12.5005ZM20 13.5005C19.8022 13.5005 19.6089 13.4418 19.4444 13.332C19.28 13.2221 19.1518 13.0659 19.0761 12.8832C19.0004 12.7004 18.9806 12.4994 19.0192 12.3054C19.0578 12.1114 19.153 11.9332 19.2929 11.7934C19.4327 11.6535 19.6109 11.5583 19.8049 11.5197C19.9989 11.4811 20.2 11.5009 20.3827 11.5766C20.5654 11.6523 20.7216 11.7805 20.8315 11.9449C20.9414 12.1094 21 12.3027 21 12.5005C21 12.7657 20.8946 13.0201 20.7071 13.2076C20.5196 13.3951 20.2652 13.5005 20 13.5005ZM20 5.50049C19.8022 5.50049 19.6089 5.44184 19.4444 5.33196C19.28 5.22208 19.1518 5.0659 19.0761 4.88317C19.0004 4.70045 18.9806 4.49938 19.0192 4.3054C19.0578 4.11142 19.153 3.93323 19.2929 3.79338C19.4327 3.65353 19.6109 3.55829 19.8049 3.5197C19.9989 3.48112 20.2 3.50092 20.3827 3.57661C20.5654 3.6523 20.7216 3.78047 20.8315 3.94492C20.9414 4.10937 21 4.30271 21 4.50049C21 4.7657 20.8946 5.02006 20.7071 5.20759C20.5196 5.39513 20.2652 5.50049 20 5.50049ZM14 8.50049C14 8.89605 13.8827 9.28273 13.6629 9.61163C13.4432 9.94053 13.1308 10.1969 12.7654 10.3482C12.3999 10.4996 11.9978 10.5392 11.6098 10.4621C11.2219 10.3849 10.8655 10.1944 10.5858 9.9147C10.3061 9.635 10.1156 9.27863 10.0384 8.89067C9.96126 8.50271 10.0009 8.10057 10.1522 7.73512C10.3036 7.36967 10.56 7.05731 10.8889 6.83755C11.2178 6.61779 11.6044 6.50049 12 6.50049C12.5304 6.50049 13.0391 6.7112 13.4142 7.08628C13.7893 7.46135 14 7.97006 14 8.50049Z" fill="#00DA91"/>
</svg>
