<svg width="202" height="38" viewBox="0 0 202 38" fill="none" xmlns="http://www.w3.org/2000/svg">
<path d="M11.0994 2.77195e-07L22.1988 19L33.2982 0L11.0994 2.77195e-07Z" fill="#6300A0"/>
<path d="M11.0994 2.77195e-07L0 19H22.1988L11.0994 2.77195e-07Z" fill="#450170"/>
<path d="M0 19L11.0994 38L22.1988 19H0Z" fill="#6300A0"/>
<path d="M11.0994 38H33.2982L22.1988 19L11.0994 38Z" fill="#8700DA"/>
<path fill-rule="evenodd" clip-rule="evenodd" d="M44.3976 19L33.2982 0L22.1988 19H44.3976Z" fill="#8700DA"/>
<path d="M33.2982 38L44.3976 19H22.1988L33.2982 38Z" fill="#B98EFF"/>
<path d="M63.9689 10.8865H71.1271C77.2007 10.8865 77.2368 19.7898 71.1271 19.7898H63.9689V10.8865ZM71.1271 6.36301C67.1503 6.36301 63.1736 6.39891 59.1968 6.39891V31.5293H63.9689V24.1338H71.1271C83.5274 24.1338 83.4912 6.36301 71.1271 6.36301Z" fill="black"/>
<path d="M106.079 31.2062L98.4142 22.626C103.222 21.6566 104.813 18.1743 104.813 14.7278C104.813 10.3839 101.668 6.43481 95.7028 6.39891C91.6899 6.39891 87.677 6.36301 83.6641 6.36301V31.5293H88.4362V23.1286H93.0275L100.403 31.5293H106.079V31.2062ZM95.7028 10.8147C98.7034 10.8147 100.041 12.8251 100.041 14.8355C100.041 16.846 98.7396 18.8564 95.7028 18.8564H88.4362V10.8147H95.7028Z" fill="black"/>
<path d="M119.918 5.8963C111.169 5.8963 106.903 12.5379 106.903 19.1436C106.903 25.7493 111.024 32.1037 119.918 32.1037C128.811 32.1037 132.824 25.6057 132.897 19.1077C132.969 12.5379 128.631 5.8963 119.918 5.8963ZM119.918 10.2044C125.883 10.2044 128.269 14.9432 128.197 19.1795C128.124 23.3081 125.883 27.7597 119.918 27.7597C113.953 27.7597 111.711 23.344 111.603 19.2154C111.494 14.9791 113.953 10.2044 119.918 10.2044Z" fill="black"/>
<path d="M155.28 26.8622H141.073V21.1899H154.774V16.7742H141.073V10.9942H155.28V6.39891H136.337C136.337 14.7637 136.337 23.1645 136.337 31.5293H155.28V26.8622Z" fill="black"/>
<path d="M179.286 6.39891H173.357L163.741 17.0255V6.39891H158.969V31.5293H163.741V20.4001L174.334 31.5293H180.226V31.2421L168.043 18.5692L179.286 6.54251V6.39891Z" fill="black"/>
<path d="M189.202 31.5293H193.974V10.707H202V6.39891C194.661 6.39891 188.479 6.39891 181.176 6.39891V10.707H189.202V31.5293Z" fill="black"/>
</svg>
