<svg width="24" height="19" viewBox="0 0 24 19" fill="none" xmlns="http://www.w3.org/2000/svg">
<path d="M18.5 18.5H5.5C4.0418 18.4984 2.64377 17.9184 1.61267 16.8873C0.581561 15.8562 0.00158817 14.4582 0 13L0 6C0.00158817 4.5418 0.581561 3.14377 1.61267 2.11267C2.64377 1.08156 4.0418 0.501588 5.5 0.5H18.5C19.9582 0.501588 21.3562 1.08156 22.3873 2.11267C23.4184 3.14377 23.9984 4.5418 24 6V13C23.9984 14.4582 23.4184 15.8562 22.3873 16.8873C21.3562 17.9184 19.9582 18.4984 18.5 18.5ZM5.5 3.5C4.83696 3.5 4.20107 3.76339 3.73223 4.23223C3.26339 4.70107 3 5.33696 3 6V13C3 13.663 3.26339 14.2989 3.73223 14.7678C4.20107 15.2366 4.83696 15.5 5.5 15.5H18.5C19.163 15.5 19.7989 15.2366 20.2678 14.7678C20.7366 14.2989 21 13.663 21 13V6C21 5.33696 20.7366 4.70107 20.2678 4.23223C19.7989 3.76339 19.163 3.5 18.5 3.5H5.5ZM5.5 4.5C5.20333 4.5 4.91332 4.58797 4.66664 4.7528C4.41997 4.91762 4.22771 5.15189 4.11418 5.42597C4.00065 5.70006 3.97094 6.00166 4.02882 6.29264C4.0867 6.58361 4.22956 6.85088 4.43934 7.06066C4.64912 7.27044 4.91639 7.4133 5.20736 7.47118C5.49834 7.52906 5.79994 7.49935 6.07403 7.38582C6.34811 7.27229 6.58238 7.08003 6.7472 6.83335C6.91203 6.58668 7 6.29667 7 6C7 5.60218 6.84196 5.22064 6.56066 4.93934C6.27936 4.65804 5.89782 4.5 5.5 4.5ZM17 6C17 6.29667 17.088 6.58668 17.2528 6.83335C17.4176 7.08003 17.6519 7.27229 17.926 7.38582C18.2001 7.49935 18.5017 7.52906 18.7926 7.47118C19.0836 7.4133 19.3509 7.27044 19.5607 7.06066C19.7704 6.85088 19.9133 6.58361 19.9712 6.29264C20.0291 6.00166 19.9993 5.70006 19.8858 5.42597C19.7723 5.15189 19.58 4.91762 19.3334 4.7528C19.0867 4.58797 18.7967 4.5 18.5 4.5C18.1022 4.5 17.7206 4.65804 17.4393 4.93934C17.158 5.22064 17 5.60218 17 6ZM6.561 11.939C6.35118 11.7293 6.08391 11.5866 5.79296 11.5288C5.50202 11.471 5.20047 11.5007 4.92643 11.6143C4.6524 11.7278 4.41819 11.9201 4.25341 12.1667C4.08863 12.4134 4.00068 12.7034 4.00068 13C4.00068 13.2966 4.08863 13.5866 4.25341 13.8333C4.41819 14.0799 4.6524 14.2722 4.92643 14.3857C5.20047 14.4993 5.50202 14.529 5.79296 14.4712C6.08391 14.4134 6.35118 14.2707 6.561 14.061C6.70039 13.9217 6.81096 13.7563 6.88641 13.5742C6.96185 13.3922 7.00068 13.1971 7.00068 13C7.00068 12.8029 6.96185 12.6078 6.88641 12.4258C6.81096 12.2437 6.70039 12.0783 6.561 11.939ZM17 13C17 13.2967 17.088 13.5867 17.2528 13.8334C17.4176 14.08 17.6519 14.2723 17.926 14.3858C18.2001 14.4993 18.5017 14.5291 18.7926 14.4712C19.0836 14.4133 19.3509 14.2704 19.5607 14.0607C19.7704 13.8509 19.9133 13.5836 19.9712 13.2926C20.0291 13.0017 19.9993 12.7001 19.8858 12.426C19.7723 12.1519 19.58 11.9176 19.3334 11.7528C19.0867 11.588 18.7967 11.5 18.5 11.5C18.1022 11.5 17.7206 11.658 17.4393 11.9393C17.158 12.2206 17 12.6022 17 13ZM8.5 9.5C8.5 8.80777 8.70527 8.13108 9.08986 7.5555C9.47444 6.97993 10.0211 6.53133 10.6606 6.26642C11.3001 6.00151 12.0039 5.9322 12.6828 6.06725C13.3617 6.2023 13.9854 6.53564 14.4749 7.02513C14.9644 7.51461 15.2977 8.13825 15.4327 8.81718C15.5678 9.49612 15.4985 10.1999 15.2336 10.8394C14.9687 11.4789 14.5201 12.0256 13.9445 12.4101C13.3689 12.7947 12.6922 13 12 13C11.0717 13 10.1815 12.6313 9.52513 11.9749C8.86875 11.3185 8.5 10.4283 8.5 9.5Z" fill="#3E3E3E"/>
</svg>
