<svg width="20" height="25" viewBox="0 0 20 25" fill="none" xmlns="http://www.w3.org/2000/svg">
<path d="M17.0002 3.107V2C17.0002 1.60218 16.8422 1.22064 16.5609 0.93934C16.2796 0.658035 15.8981 0.5 15.5002 0.5C15.1024 0.5 14.7209 0.658035 14.4396 0.93934C14.1583 1.22064 14.0002 1.60218 14.0002 2V2.5H11.5002V2C11.5002 1.60218 11.3422 1.22064 11.0609 0.93934C10.7796 0.658035 10.3981 0.5 10.0002 0.5C9.60242 0.5 9.22089 0.658035 8.93958 0.93934C8.65828 1.22064 8.50024 1.60218 8.50024 2V2.5H6.00024V2C6.00024 1.60218 5.84221 1.22064 5.5609 0.93934C5.2796 0.658035 4.89807 0.5 4.50024 0.5C4.10242 0.5 3.72089 0.658035 3.43958 0.93934C3.15828 1.22064 3.00024 1.60218 3.00024 2V3.107C2.09819 3.56733 1.34074 4.26778 0.811388 5.13115C0.28204 5.99452 0.00134546 6.98728 0.000244141 8V19C0.00183231 20.4582 0.581805 21.8562 1.61291 22.8873C2.64402 23.9184 4.04204 24.4984 5.50024 24.5H14.5002C15.9584 24.4981 17.3562 23.9181 18.3873 22.887C19.4183 21.856 19.9984 20.4581 20.0002 19V8C19.9991 6.98728 19.7184 5.99452 19.1891 5.13115C18.6598 4.26778 17.9023 3.56733 17.0002 3.107ZM17.0002 19C17.0002 19.663 16.7369 20.2989 16.268 20.7678C15.7992 21.2366 15.1633 21.5 14.5002 21.5H5.50024C4.8372 21.5 4.20132 21.2366 3.73248 20.7678C3.26364 20.2989 3.00024 19.663 3.00024 19V8C3.00024 7.33696 3.26364 6.70107 3.73248 6.23223C4.20132 5.76339 4.8372 5.5 5.50024 5.5H14.5002C15.1633 5.5 15.7992 5.76339 16.268 6.23223C16.7369 6.70107 17.0002 7.33696 17.0002 8V19ZM15.0002 9C15.0002 9.39782 14.8422 9.77936 14.5609 10.0607C14.2796 10.342 13.8981 10.5 13.5002 10.5H6.50024C6.10242 10.5 5.72089 10.342 5.43958 10.0607C5.15828 9.77936 5.00024 9.39782 5.00024 9C5.00024 8.60218 5.15828 8.22064 5.43958 7.93934C5.72089 7.65804 6.10242 7.5 6.50024 7.5H13.5002C13.8981 7.5 14.2796 7.65804 14.5609 7.93934C14.8422 8.22064 15.0002 8.60218 15.0002 9ZM11.5002 14C11.5002 14.3978 11.3422 14.7794 11.0609 15.0607C10.7796 15.342 10.3981 15.5 10.0002 15.5H6.50024C6.10242 15.5 5.72089 15.342 5.43958 15.0607C5.15828 14.7794 5.00024 14.3978 5.00024 14C5.00024 13.6022 5.15828 13.2206 5.43958 12.9393C5.72089 12.658 6.10242 12.5 6.50024 12.5H10.0002C10.3981 12.5 10.7796 12.658 11.0609 12.9393C11.3422 13.2206 11.5002 13.6022 11.5002 14Z" fill="#3E3E3E"/>
</svg>
