<svg width="22" height="24" viewBox="0 0 22 24" fill="none" xmlns="http://www.w3.org/2000/svg">
<path d="M16.5001 0H7.50012C6.4874 0.00110132 5.49464 0.281796 4.63127 0.811144C3.7679 1.34049 3.06745 2.09794 2.60712 3H1.50012C1.1023 3 0.720767 3.15804 0.439462 3.43934C0.158157 3.72064 0.00012207 4.10218 0.00012207 4.5C0.00012207 4.89782 0.158157 5.27936 0.439462 5.56066C0.720767 5.84196 1.1023 6 1.50012 6H2.00012V8H1.50012C1.1023 8 0.720767 8.15804 0.439462 8.43934C0.158157 8.72064 0.00012207 9.10218 0.00012207 9.5C0.00012207 9.89782 0.158157 10.2794 0.439462 10.5607C0.720767 10.842 1.1023 11 1.50012 11H2.00012V13H1.50012C1.1023 13 0.720767 13.158 0.439462 13.4393C0.158157 13.7206 0.00012207 14.1022 0.00012207 14.5C0.00012207 14.8978 0.158157 15.2794 0.439462 15.5607C0.720767 15.842 1.1023 16 1.50012 16H2.00012V18H1.50012C1.1023 18 0.720767 18.158 0.439462 18.4393C0.158157 18.7206 0.00012207 19.1022 0.00012207 19.5C0.00012207 19.8978 0.158157 20.2794 0.439462 20.5607C0.720767 20.842 1.1023 21 1.50012 21H2.60712C3.06745 21.9021 3.7679 22.6595 4.63127 23.1889C5.49464 23.7182 6.4874 23.9989 7.50012 24H16.5001C17.9583 23.9984 19.3563 23.4184 20.3875 22.3873C21.4186 21.3562 21.9985 19.9582 22.0001 18.5V5.5C21.9985 4.0418 21.4186 2.64377 20.3875 1.61267C19.3563 0.581561 17.9583 0.00158817 16.5001 0V0ZM19.0001 18.5C19.0001 19.163 18.7367 19.7989 18.2679 20.2678C17.799 20.7366 17.1632 21 16.5001 21H7.50012C6.83708 21 6.2012 20.7366 5.73236 20.2678C5.26351 19.7989 5.00012 19.163 5.00012 18.5V5.5C5.00012 4.83696 5.26351 4.20107 5.73236 3.73223C6.2012 3.26339 6.83708 3 7.50012 3H16.5001C17.1632 3 17.799 3.26339 18.2679 3.73223C18.7367 4.20107 19.0001 4.83696 19.0001 5.5V18.5ZM9.50012 9.5C9.50012 8.83696 9.76351 8.20107 10.2324 7.73223C10.7012 7.26339 11.3371 7 12.0001 7C12.6632 7 13.299 7.26339 13.7679 7.73223C14.2367 8.20107 14.5001 8.83696 14.5001 9.5C14.5001 10.163 14.2367 10.7989 13.7679 11.2678C13.299 11.7366 12.6632 12 12.0001 12C11.3371 12 10.7012 11.7366 10.2324 11.2678C9.76351 10.7989 9.50012 10.163 9.50012 9.5ZM15.9881 16.232C16.0032 16.3282 15.997 16.4266 15.9699 16.5202C15.9428 16.6137 15.8955 16.7002 15.8313 16.7735C15.7671 16.8467 15.6876 16.905 15.5984 16.9441C15.5092 16.9833 15.4125 17.0024 15.3151 17H8.65412C8.55674 17.0024 8.46003 16.9833 8.37083 16.9441C8.28163 16.905 8.20212 16.8467 8.13793 16.7735C8.07373 16.7002 8.02641 16.6137 7.99931 16.5202C7.97222 16.4266 7.96601 16.3282 7.98112 16.232C8.84212 11.965 15.1281 11.968 15.9881 16.232Z" fill="#3E3E3E"/>
</svg>
