<svg width="30" height="32" viewBox="0 0 30 32" fill="none" xmlns="http://www.w3.org/2000/svg">
<path d="M29.0693 17.6134L26.7333 9.2214C25.9798 6.51733 24.3442 4.14263 22.0864 2.47459C19.8287 0.806541 17.0783 -0.0591731 14.2721 0.0149867C11.466 0.0891465 8.76516 1.09893 6.59867 2.88389C4.43217 4.66886 2.92431 7.12664 2.31464 9.86673L0.50931 17.9854C0.271141 19.0573 0.27671 20.1689 0.525606 21.2384C0.774501 22.3078 1.26037 23.3077 1.94735 24.1642C2.63434 25.0208 3.5049 25.7122 4.49479 26.1873C5.48468 26.6624 6.56863 26.9092 7.66664 26.9094H8.19998C8.62429 28.3768 9.5139 29.6665 10.7348 30.5844C11.9557 31.5023 13.4418 31.9986 14.9693 31.9986C16.4968 31.9986 17.9829 31.5023 19.2038 30.5844C20.4247 29.6665 21.3143 28.3768 21.7386 26.9094H21.996C23.1266 26.9095 24.2418 26.6483 25.2547 26.146C26.2676 25.6437 27.1506 24.9141 27.8348 24.014C28.519 23.114 28.9859 22.0679 29.1989 20.9576C29.4118 19.8473 29.3652 18.7027 29.0626 17.6134H29.0693ZM24.6573 21.5921C24.3478 22.003 23.9467 22.3361 23.4858 22.5648C23.025 22.7935 22.5171 22.9115 22.0026 22.9094H7.66664C7.16759 22.9093 6.67492 22.7971 6.225 22.5812C5.77508 22.3652 5.3794 22.051 5.06714 21.6617C4.75488 21.2724 4.53402 20.818 4.42086 20.3319C4.30769 19.8459 4.30511 19.3406 4.41331 18.8534L6.21864 10.7201C6.6332 8.84816 7.66204 7.16873 9.14137 5.94912C10.6207 4.7295 12.4655 4.03981 14.3821 3.98982C16.2987 3.93984 18.177 4.53244 19.7179 5.67328C21.2588 6.81413 22.3737 8.43765 22.8853 10.2854L25.216 18.6774C25.3566 19.1731 25.3793 19.6949 25.2823 20.201C25.1853 20.7071 24.9713 21.1835 24.6573 21.5921Z" fill="#3E3E3E"/>
</svg>
