<svg width="30" height="30" viewBox="0 0 30 30" fill="none" xmlns="http://www.w3.org/2000/svg">
<path fill-rule="evenodd" clip-rule="evenodd" d="M5.625 0H24.375C27.4802 0.00345703 29.9965 2.51982 30 5.625V20.6062C30.0039 22.0989 29.4107 23.5311 28.3525 24.5838L24.5825 28.3525C23.5302 29.4112 22.0978 30.0046 20.605 30H5.625C2.51982 29.9965 0.00345703 27.4802 0 24.375V5.625C0.00345703 2.51982 2.51982 0.00345703 5.625 0ZM21.25 18.75H26.25V13.75H3.75V24.375C3.75 25.4105 4.58947 26.25 5.625 26.25H18.75V21.25C18.75 19.8693 19.8693 18.75 21.25 18.75ZM8.91136 7.28094C8.5345 7.46607 8.09295 7.55625 7.59063 7.55625H6.45937V10.375C6.45937 10.5696 6.37958 10.7369 6.2305 10.871C6.08833 10.9982 5.91758 11.0625 5.725 11.0625C5.53242 11.0625 5.36194 10.9985 5.21978 10.8713L5.21712 10.8689C5.07477 10.734 5 10.5673 5 10.375V3.86875C5 3.67389 5.06886 3.50436 5.20536 3.36786L5.20775 3.36547C5.34992 3.23078 5.52836 3.15831 5.73515 3.14405L5.74007 3.14371C5.9542 3.13741 6.25216 3.13438 6.63335 3.13438C7.01449 3.12813 7.32739 3.125 7.57187 3.125C8.34068 3.125 8.96002 3.30764 9.41433 3.68829C9.87801 4.0715 10.1062 4.60265 10.1062 5.26562C10.1062 5.72208 10.005 6.12617 9.79799 6.47338C9.59113 6.82038 9.29364 7.0898 8.91136 7.28094ZM7.59075 6.30622C7.97825 6.30622 8.272 6.22185 8.472 6.05309C8.67825 5.88434 8.78137 5.65309 8.78137 5.35934C8.78137 5.09684 8.67825 4.88122 8.472 4.71247C8.272 4.54372 7.972 4.45934 7.572 4.45934L6.3345 4.46872V6.30622H7.59075ZM16.4598 10.2019C16.388 10.0911 16.3142 10.0013 16.2375 9.93989L16.2329 9.93641C16.1917 9.90644 16.1471 9.84739 16.1079 9.74116C16.0692 9.63602 16.0395 9.49452 16.0213 9.31329C15.9901 8.95779 15.9684 8.68113 15.956 8.48283L15.9183 8.04924C15.8949 7.74592 15.8058 7.4817 15.6465 7.26182C15.5382 7.1123 15.3998 6.98657 15.2334 6.88375C15.5264 6.74904 15.7608 6.56917 15.9313 6.34131C16.1505 6.04847 16.2563 5.68712 16.2563 5.26562C16.2563 4.84905 16.1468 4.47464 15.9261 4.14654C15.7119 3.81886 15.4085 3.56695 15.0211 3.38962C14.6396 3.21209 14.2056 3.125 13.7219 3.125C13.4712 3.125 13.1551 3.12813 12.774 3.13438C12.3928 3.13438 12.0948 3.13738 11.8807 3.14368L11.8751 3.14409C11.6805 3.15851 11.5136 3.22836 11.3835 3.35849C11.2499 3.49204 11.1875 3.6665 11.1875 3.86875V10.4594C11.1875 10.6472 11.2524 10.8125 11.3808 10.9485L11.386 10.9534C11.522 11.0818 11.6872 11.1469 11.875 11.1469C12.0629 11.1469 12.2264 11.0816 12.3571 10.9509C12.4926 10.8154 12.5625 10.6495 12.5625 10.4594V7.3875H13.0562C13.4865 7.3875 13.8424 7.4607 14.1272 7.60019C14.407 7.73452 14.5336 7.91998 14.5438 8.15844L14.5441 8.16271C14.5566 8.325 14.5722 8.53443 14.591 8.7906C14.6098 9.04132 14.6286 9.26114 14.6475 9.44994L14.6477 9.4515C14.6983 9.90077 14.7815 10.2572 14.9027 10.5129L14.9032 10.5141C15.0276 10.7697 15.2269 10.9713 15.4948 11.1196C15.6001 11.1877 15.7438 11.2125 15.9062 11.2125C16.0944 11.2125 16.2597 11.1574 16.3921 11.0406C16.5282 10.9205 16.5938 10.7599 16.5938 10.5719C16.5938 10.4448 16.5432 10.3207 16.4598 10.2019ZM13.7126 6.22185H12.4376V4.37497H13.722C14.1282 4.37497 14.4439 4.45309 14.6689 4.60934C14.8939 4.76559 15.0064 4.98434 15.0064 5.26559C15.0064 5.61559 14.9032 5.86247 14.697 6.00622C14.4907 6.14997 14.1626 6.22185 13.7126 6.22185ZM18.2035 9.31979C17.8608 8.69913 17.691 7.99352 17.691 7.20625C17.691 6.41899 17.8608 5.71337 18.2035 5.09271C18.5517 4.47373 19.0274 3.99071 19.6287 3.64793C20.2304 3.29864 20.9053 3.125 21.6504 3.125C22.3955 3.125 23.0704 3.29863 23.6721 3.6479C24.2736 3.99081 24.746 4.47325 25.088 5.09271C25.4306 5.71337 25.6004 6.41899 25.6004 7.20625C25.6004 7.99352 25.4306 8.69913 25.088 9.31979C24.746 9.93921 24.2738 10.4246 23.6726 10.7737C23.0709 11.1166 22.3952 11.2875 21.6504 11.2875C20.9056 11.2875 20.2308 11.1171 19.6292 10.7742C19.0281 10.4252 18.5516 9.93874 18.2035 9.31979ZM21.6505 9.95309C22.1505 9.95309 22.5974 9.8406 22.9912 9.61559C23.3912 9.38435 23.7037 9.06247 23.9287 8.64997C24.1537 8.23122 24.2662 7.74997 24.2662 7.20622C24.2662 6.66247 24.1537 6.18434 23.9287 5.77184C23.7037 5.35309 23.3912 5.03122 22.9912 4.80622C22.5974 4.57497 22.1505 4.45934 21.6505 4.45934C21.1505 4.45934 20.7005 4.57497 20.3005 4.80622C19.9005 5.03122 19.588 5.35309 19.363 5.77184C19.138 6.18434 19.0255 6.66247 19.0255 7.20622C19.0255 7.74997 19.138 8.23122 19.363 8.64997C19.588 9.06247 19.9005 9.38435 20.3005 9.61559C20.7005 9.8406 21.1505 9.95309 21.6505 9.95309Z" fill="#3E3E3E" fill-opacity="0.5"/>
</svg>
