<svg width="24" height="24" viewBox="0 0 24 24" fill="none" xmlns="http://www.w3.org/2000/svg">
<g clip-path="url(#clip0_30_190)">
<path d="M22.5 21H5.5C4.83696 21 4.20107 20.7366 3.73223 20.2678C3.26339 19.7989 3 19.163 3 18.5V1.5C3 1.10218 2.84196 0.720644 2.56066 0.43934C2.27936 0.158035 1.89782 0 1.5 0C1.10218 0 0.720644 0.158035 0.43934 0.43934C0.158035 0.720644 0 1.10218 0 1.5L0 18.5C0.00158817 19.9582 0.581561 21.3562 1.61267 22.3873C2.64377 23.4184 4.0418 23.9984 5.5 24H22.5C22.8978 24 23.2794 23.842 23.5607 23.5607C23.842 23.2794 24 22.8978 24 22.5C24 22.1022 23.842 21.7206 23.5607 21.4393C23.2794 21.158 22.8978 21 22.5 21Z" fill="#3E3E3E"/>
<path d="M22.4999 3.97607H19.414C19.2162 3.97612 19.0229 4.03479 18.8585 4.14467C18.6941 4.25456 18.5659 4.41072 18.4903 4.59342C18.4146 4.77612 18.3948 4.97715 18.4334 5.17111C18.4719 5.36506 18.5671 5.54322 18.707 5.68307L19.44 6.41507L15.853 10.0001C15.8065 10.0466 15.7513 10.0836 15.6906 10.1088C15.6298 10.134 15.5647 10.147 15.499 10.147C15.4332 10.147 15.3681 10.134 15.3073 10.1088C15.2466 10.0836 15.1914 10.0466 15.145 10.0001L14.975 9.83007C14.3083 9.19324 13.4219 8.83788 12.5 8.83788C11.578 8.83788 10.6916 9.19324 10.025 9.83007L5.92497 13.9301C5.78171 14.0684 5.66743 14.234 5.58882 14.417C5.51021 14.6 5.46883 14.7968 5.4671 14.996C5.46537 15.1951 5.50332 15.3927 5.57874 15.577C5.65416 15.7614 5.76554 15.9288 5.90638 16.0697C6.04722 16.2105 6.2147 16.3219 6.39904 16.3973C6.58338 16.4727 6.7809 16.5107 6.98007 16.509C7.17924 16.5072 7.37607 16.4658 7.55908 16.3872C7.74208 16.3086 7.9076 16.1943 8.04597 16.0511L12.146 11.9511C12.1924 11.9045 12.2476 11.8676 12.3083 11.8424C12.3691 11.8172 12.4342 11.8042 12.5 11.8042C12.5657 11.8042 12.6309 11.8172 12.6916 11.8424C12.7523 11.8676 12.8075 11.9045 12.854 11.9511L13.024 12.1211C13.6908 12.7575 14.5772 13.1125 15.499 13.1125C16.4207 13.1125 17.3071 12.7575 17.974 12.1211L21.5599 8.53608L22.2919 9.26907C22.4317 9.40923 22.61 9.50474 22.8041 9.5435C22.9982 9.58227 23.1995 9.56254 23.3824 9.48683C23.5653 9.41112 23.7216 9.28283 23.8316 9.1182C23.9415 8.95358 24.0001 8.76003 23.9999 8.56208V5.47607C23.9999 5.07825 23.8419 4.69672 23.5606 4.41541C23.2793 4.13411 22.8978 3.97607 22.4999 3.97607Z" fill="#3E3E3E"/>
</g>
<defs>
<clipPath id="clip0_30_190">
<rect width="24" height="24" fill="white"/>
</clipPath>
</defs>
</svg>
