<svg width="24" height="24" viewBox="0 0 24 24" fill="none" xmlns="http://www.w3.org/2000/svg">
<g clip-path="url(#clip0_25_199)">
<path d="M21.4998 2.00087H13.4998C12.8368 2.00087 12.2009 2.26426 11.7321 2.7331C11.2632 3.20194 10.9998 3.83783 10.9998 4.50087V4.80087L9.73484 2.60687C9.57505 2.31163 9.35824 2.05106 9.09697 1.84026C8.8357 1.62946 8.53518 1.47263 8.21284 1.37887C7.67669 1.228 7.10552 1.26048 6.58993 1.47117C6.07435 1.68186 5.64389 2.05869 5.36684 2.54187L0.374849 11.1879C0.199725 11.4739 0.0830439 11.7919 0.0315508 12.1233C-0.0199424 12.4548 -0.00522575 12.7931 0.0748498 13.1189C0.212273 13.6575 0.525318 14.135 0.964496 14.4759C1.40367 14.8167 1.94393 15.0014 2.49985 15.0009H5.19984C4.89791 16.0539 4.84467 17.1627 5.04432 18.2398C5.24397 19.3169 5.69105 20.333 6.35033 21.2079C7.00962 22.0828 7.86308 22.7926 8.84346 23.2814C9.82385 23.7702 10.9044 24.0246 11.9998 24.0246C13.0953 24.0246 14.1758 23.7702 15.1562 23.2814C16.1366 22.7926 16.9901 22.0828 17.6493 21.2079C18.3086 20.333 18.7557 19.3169 18.9554 18.2398C19.155 17.1627 19.1018 16.0539 18.7998 15.0009H21.4998C21.8281 15.0009 22.1532 14.9362 22.4565 14.8106C22.7598 14.6849 23.0354 14.5008 23.2676 14.2686C23.4997 14.0365 23.6839 13.7609 23.8095 13.4576C23.9352 13.1543 23.9998 12.8292 23.9998 12.5009V4.50087C23.9998 4.17256 23.9352 3.84747 23.8095 3.54416C23.6839 3.24085 23.4997 2.96525 23.2676 2.7331C23.0354 2.50096 22.7598 2.31681 22.4565 2.19117C22.1532 2.06554 21.8281 2.00087 21.4998 2.00087ZM3.36985 12.0009L7.53184 4.79187L10.5418 10.0009C9.16492 10.2921 7.90662 10.9886 6.92884 12.0009H3.36985ZM11.9998 21.0008C11.1941 21.0008 10.4064 20.7619 9.73645 20.3143C9.06648 19.8666 8.54431 19.2303 8.23595 18.4859C7.9276 17.7415 7.84693 16.9223 8.00412 16.1321C8.16132 15.3418 8.54933 14.6159 9.11909 14.0461C9.68885 13.4763 10.4148 13.0883 11.205 12.9311C11.9953 12.7739 12.8145 12.8546 13.5589 13.163C14.3033 13.4713 14.9396 13.9935 15.3872 14.6635C15.8349 15.3334 16.0738 16.1211 16.0738 16.9269C16.0725 18.0069 15.6429 19.0424 14.8791 19.8061C14.1154 20.5699 13.0799 20.9995 11.9998 21.0008ZM20.9998 12.0009H17.0708C16.2137 11.1398 15.1596 10.5007 13.9998 10.1389V5.00087H20.9998V12.0009Z" fill="#3E3E3E"/>
</g>
<defs>
<clipPath id="clip0_25_199">
<rect width="24" height="24" fill="white"/>
</clipPath>
</defs>
</svg>
