<svg width="24" height="24" viewBox="0 0 24 24" fill="none" xmlns="http://www.w3.org/2000/svg">
<path d="M12 0C9.62663 0 7.30655 0.703788 5.33316 2.02236C3.35977 3.34094 1.8217 5.21509 0.913451 7.4078C0.00519943 9.60051 -0.232441 12.0133 0.230582 14.3411C0.693605 16.6689 1.83649 18.8071 3.51472 20.4853C5.19295 22.1635 7.33115 23.3064 9.65892 23.7694C11.9867 24.2324 14.3995 23.9948 16.5922 23.0866C18.7849 22.1783 20.6591 20.6402 21.9776 18.6668C23.2962 16.6935 24 14.3734 24 12C23.9966 8.81846 22.7312 5.76821 20.4815 3.51852C18.2318 1.26883 15.1815 0.00344108 12 0ZM12 21C10.22 21 8.47992 20.4722 6.99987 19.4832C5.51983 18.4943 4.36628 17.0887 3.68509 15.4442C3.0039 13.7996 2.82567 11.99 3.17294 10.2442C3.5202 8.49836 4.37737 6.89471 5.63604 5.63604C6.89472 4.37737 8.49836 3.5202 10.2442 3.17293C11.99 2.82567 13.7996 3.0039 15.4442 3.68508C17.0887 4.36627 18.4943 5.51983 19.4832 6.99987C20.4722 8.47991 21 10.22 21 12C20.9974 14.3861 20.0483 16.6738 18.361 18.361C16.6738 20.0483 14.3861 20.9974 12 21Z" fill="#C5C5C5"/>
<path d="M11.9503 14.7308C11.5525 14.7308 11.1709 14.5728 10.8896 14.2915C10.6083 14.0101 10.4503 13.6286 10.4503 13.2308V13.0078C10.4362 12.4486 10.602 11.8997 10.9234 11.4419C11.2448 10.9841 11.7046 10.6416 12.2353 10.4648C12.4906 10.3884 12.7051 10.2139 12.832 9.97965C12.9589 9.74536 12.9878 9.47032 12.9123 9.21479C12.867 9.05518 12.7816 8.90978 12.6644 8.79236C12.5471 8.67494 12.4019 8.58938 12.2423 8.54379C12.1053 8.5048 11.9617 8.49463 11.8206 8.5139C11.6794 8.53318 11.5438 8.58149 11.4223 8.65579C11.307 8.72782 11.2075 8.82246 11.1299 8.93401C11.0522 9.04556 10.9979 9.17169 10.9703 9.30479C10.9309 9.49784 10.8539 9.68123 10.7436 9.8445C10.6333 10.0078 10.492 10.1477 10.3276 10.2564C10.1633 10.365 9.97911 10.4402 9.78569 10.4777C9.59226 10.5152 9.39335 10.5142 9.2003 10.4748C9.00726 10.4354 8.82387 10.3584 8.6606 10.2481C8.49732 10.1378 8.35737 9.99647 8.24873 9.83211C8.14008 9.66775 8.06487 9.4836 8.0274 9.29017C7.98992 9.09675 7.99091 8.89783 8.0303 8.70479C8.13896 8.16917 8.35622 7.66149 8.66869 7.21309C8.98116 6.76469 9.38221 6.38508 9.84708 6.09768C10.3119 5.81029 10.8308 5.62121 11.3716 5.54211C11.9123 5.46302 12.4636 5.49558 12.9913 5.63779C13.8022 5.85476 14.5242 6.32131 15.0552 6.97138C15.5862 7.62144 15.8993 8.42208 15.95 9.25992C16.0008 10.0978 15.7867 10.9303 15.3381 11.6398C14.8895 12.3492 14.229 12.8995 13.4503 13.2128V13.2288C13.4506 13.4259 13.412 13.6212 13.3367 13.8034C13.2614 13.9857 13.151 14.1512 13.0117 14.2907C12.8724 14.4302 12.7069 14.5409 12.5248 14.6164C12.3427 14.6919 12.1475 14.7308 11.9503 14.7308ZM11.9503 15.5078C11.6536 15.5078 11.3636 15.5958 11.117 15.7606C10.8703 15.9254 10.678 16.1597 10.5645 16.4338C10.451 16.7079 10.4212 17.0095 10.4791 17.3004C10.537 17.5914 10.6799 17.8587 10.8896 18.0685C11.0994 18.2782 11.3667 18.4211 11.6577 18.479C11.9486 18.5369 12.2502 18.5071 12.5243 18.3936C12.7984 18.2801 13.0327 18.0878 13.1975 17.8411C13.3623 17.5945 13.4503 17.3045 13.4503 17.0078C13.4503 16.61 13.2923 16.2284 13.011 15.9471C12.7297 15.6658 12.3481 15.5078 11.9503 15.5078Z" fill="#C5C5C5"/>
</svg>
