<svg width="18" height="18" viewBox="0 0 18 18" fill="none" xmlns="http://www.w3.org/2000/svg">
<g clip-path="url(#clip0_25_195)">
<path d="M2.31447 8.01306C2.85758 4.3223 6.2898 1.77062 9.98056 2.31373C11.2398 2.49902 12.421 3.03632 13.3882 3.86372L12.5175 4.73439C12.2257 5.02628 12.2258 5.4995 12.5177 5.79132C12.6578 5.93138 12.8478 6.0101 13.0459 6.01014H16.4733C16.8861 6.01014 17.2207 5.67554 17.2207 5.26278V1.83536C17.2206 1.42261 16.8859 1.08808 16.4732 1.08815C16.2751 1.08819 16.085 1.1669 15.9449 1.30696L14.9733 2.27853C11.2683 -1.02418 5.58733 -0.698026 2.28462 3.00703C1.11456 4.3196 0.355266 5.94659 0.100788 7.68645C0.000454716 8.30327 0.41913 8.88464 1.03592 8.98497C1.09148 8.99401 1.1476 8.99888 1.2039 8.99958C1.7682 8.99348 2.24188 8.57271 2.31447 8.01306Z" fill="#3E3E3E"/>
<path d="M16.7953 8.99939C16.231 9.00549 15.7573 9.42626 15.6847 9.98591C15.1416 13.6767 11.7094 16.2283 8.01863 15.6853C6.75941 15.5 5.57818 14.9627 4.611 14.1353L5.48167 13.2646C5.77349 12.9727 5.77342 12.4995 5.48149 12.2077C5.3414 12.0676 5.15138 11.9889 4.95327 11.9889H1.52592C1.11316 11.9889 0.778564 12.3235 0.778564 12.7362V16.1636C0.77867 16.5764 1.11334 16.9109 1.52609 16.9108C1.7242 16.9108 1.91422 16.8321 2.05431 16.692L3.02588 15.7205C6.73006 19.0235 12.4106 18.6984 15.7137 14.9942C16.8843 13.6813 17.644 12.0538 17.8984 10.3133C17.9992 9.69654 17.5809 9.11489 16.9641 9.01414C16.9083 9.005 16.8519 9.00006 16.7953 8.99939Z" fill="#3E3E3E"/>
</g>
<defs>
<clipPath id="clip0_25_195">
<rect width="18" height="18" fill="white"/>
</clipPath>
</defs>
</svg>
