<svg width="24" height="24" viewBox="0 0 24 24" fill="none" xmlns="http://www.w3.org/2000/svg">
<path d="M20.4368 4.07991L14.6648 0.747905C13.854 0.281563 12.9351 0.0361328 11.9998 0.0361328C11.0645 0.0361328 10.1455 0.281563 9.33478 0.747905L3.56278 4.07991C2.75324 4.54939 2.08119 5.22323 1.61385 6.03401C1.14651 6.84479 0.900276 7.76408 0.89978 8.6999V15.3639C0.901381 16.2992 1.14833 17.2177 1.61598 18.0277C2.08362 18.8377 2.75559 19.5109 3.56478 19.9799L9.33678 23.3119C10.1475 23.7783 11.0665 24.0238 12.0018 24.0238C12.9371 24.0238 13.8561 23.7783 14.6668 23.3119L20.4388 19.9799C21.248 19.5099 21.9196 18.8358 22.3866 18.0249C22.8535 17.2139 23.0995 16.2947 23.0998 15.3589V8.6999C23.0993 7.76408 22.8531 6.84479 22.3857 6.03401C21.9184 5.22323 21.2463 4.54939 20.4368 4.07991ZM10.8368 3.34591C11.1912 3.14218 11.5929 3.03498 12.0018 3.03498C12.4106 3.03498 12.8123 3.14218 13.1668 3.34591L18.5998 6.48391L13.4168 9.4779C12.9854 9.72508 12.4969 9.85513 11.9998 9.85513C11.5026 9.85513 11.0141 9.72508 10.5828 9.4779L5.39978 6.48391L10.8368 3.34591ZM5.06278 17.3769C4.70947 17.1715 4.41616 16.8771 4.2121 16.523C4.00804 16.169 3.90036 15.7676 3.89978 15.3589V9.0819L9.08478 12.0749C9.52895 12.3319 10.0055 12.5283 10.5018 12.6589V20.5159L5.06278 17.3769ZM18.9368 17.3769L13.4998 20.5159V12.6589C13.996 12.5283 14.4726 12.3319 14.9168 12.0749L20.0998 9.0819V15.3589C20.0992 15.7676 19.9915 16.169 19.7875 16.523C19.5834 16.8771 19.2901 17.1715 18.9368 17.3769Z" fill="#3E3E3E"/>
</svg>
