<svg width="24" height="24" viewBox="0 0 24 24" fill="none" xmlns="http://www.w3.org/2000/svg">
<path d="M23.5624 21.4478L18.9196 16.804C22.3968 12.1606 21.4513 5.57749 16.8079 2.10034C12.1645 -1.3768 5.58144 -0.431428 2.10425 4.21202C-1.37294 8.85546 -0.427471 15.4385 4.21597 18.9157C7.94661 21.7093 13.072 21.7105 16.804 18.9186L21.4487 23.5634C22.0324 24.1471 22.9787 24.1471 23.5624 23.5634C24.1461 22.9797 24.1461 22.0334 23.5624 21.4497V21.4478ZM10.5525 18.0222C6.42654 18.0222 3.08183 14.6775 3.08183 10.5515C3.08183 6.4256 6.42659 3.08087 10.5525 3.08087C14.6784 3.08087 18.0231 6.4256 18.0231 10.5515C18.0188 14.6757 14.6766 18.0178 10.5525 18.0222Z" fill="#3E3E3E" fill-opacity="0.5"/>
</svg>
