<svg width="24" height="24" viewBox="0 0 24 24" fill="none" xmlns="http://www.w3.org/2000/svg">
<g clip-path="url(#clip0_25_228)">
<path d="M11.9997 7.6377C11.1368 7.6377 10.2933 7.89358 9.57577 8.37299C8.85828 8.85241 8.29906 9.53381 7.96883 10.331C7.63861 11.1283 7.55221 12.0055 7.72055 12.8519C7.8889 13.6982 8.30444 14.4756 8.91461 15.0858C9.52479 15.696 10.3022 16.1115 11.1485 16.2799C11.9949 16.4482 12.8721 16.3618 13.6694 16.0316C14.4666 15.7014 15.148 15.1421 15.6274 14.4246C16.1068 13.7072 16.3627 12.8636 16.3627 12.0007C16.3614 10.844 15.9013 9.73499 15.0834 8.91705C14.2654 8.09912 13.1565 7.63902 11.9997 7.6377ZM11.9997 13.3637C11.7301 13.3637 11.4666 13.2838 11.2425 13.134C11.0183 12.9842 10.8436 12.7713 10.7405 12.5223C10.6373 12.2732 10.6103 11.9992 10.6629 11.7348C10.7155 11.4704 10.8453 11.2275 11.0359 11.0369C11.2266 10.8463 11.4694 10.7165 11.7338 10.6639C11.9982 10.6113 12.2723 10.6383 12.5213 10.7414C12.7704 10.8446 12.9832 11.0193 13.133 11.2435C13.2828 11.4676 13.3627 11.7311 13.3627 12.0007C13.3625 12.3621 13.2188 12.7086 12.9632 12.9642C12.7077 13.2197 12.3611 13.3634 11.9997 13.3637Z" fill="#3E3E3E"/>
<path d="M22 12C21.9985 10.4677 21.6422 8.95656 20.959 7.585L21.473 7.228C21.7993 7.00055 22.0219 6.6528 22.0919 6.26124C22.1618 5.86968 22.0734 5.46636 21.846 5.14C21.6186 4.81369 21.2708 4.59109 20.8792 4.52114C20.4877 4.45119 20.0844 4.53963 19.758 4.767L19.243 5.125C17.7161 3.51343 15.695 2.45764 13.5 2.125V1.5C13.5 1.10218 13.342 0.720644 13.0607 0.43934C12.7794 0.158035 12.3978 0 12 0C11.6022 0 11.2207 0.158035 10.9394 0.43934C10.658 0.720644 10.5 1.10218 10.5 1.5V2.125C8.30504 2.45764 6.2839 3.51343 4.75701 5.125L4.24201 4.767C3.91565 4.53963 3.51233 4.45119 3.12077 4.52114C2.72921 4.59109 2.38147 4.81369 2.15401 5.14C1.92664 5.46636 1.8382 5.86968 1.90815 6.26124C1.9781 6.6528 2.2007 7.00055 2.52701 7.228L3.04101 7.585C2.35642 8.95606 2.00004 10.4675 2.00004 12C2.00004 13.5325 2.35642 15.0439 3.04101 16.415L2.52701 16.772C2.2007 16.9995 1.9781 17.3472 1.90815 17.7388C1.8382 18.1303 1.92664 18.5336 2.15401 18.86C2.38147 19.1863 2.72921 19.4089 3.12077 19.4789C3.51233 19.5488 3.91565 19.4604 4.24201 19.233L4.75701 18.875C6.2839 20.4866 8.30504 21.5424 10.5 21.875V22.5C10.5 22.8978 10.658 23.2794 10.9394 23.5607C11.2207 23.842 11.6022 24 12 24C12.3978 24 12.7794 23.842 13.0607 23.5607C13.342 23.2794 13.5 22.8978 13.5 22.5V21.875C15.695 21.5424 17.7161 20.4866 19.243 18.875L19.758 19.233C20.0844 19.4604 20.4877 19.5488 20.8792 19.4789C21.2708 19.4089 21.6186 19.1863 21.846 18.86C22.0734 18.5336 22.1618 18.1303 22.0919 17.7388C22.0219 17.3472 21.7993 16.9995 21.473 16.772L20.959 16.415C21.6422 15.0434 21.9985 13.5323 22 12ZM12 19C10.6155 19 9.26216 18.5895 8.11102 17.8203C6.95988 17.0511 6.06267 15.9579 5.53285 14.6788C5.00304 13.3997 4.86442 11.9922 5.13451 10.6344C5.40461 9.2765 6.0713 8.02922 7.05026 7.05025C8.02923 6.07128 9.27651 5.4046 10.6344 5.1345C11.9922 4.86441 13.3997 5.00303 14.6788 5.53284C15.9579 6.06266 17.0511 6.95986 17.8203 8.11101C18.5895 9.26215 19 10.6155 19 12C18.9976 13.8558 18.2594 15.6349 16.9471 16.9471C15.6349 18.2594 13.8558 18.9976 12 19Z" fill="#3E3E3E"/>
</g>
<defs>
<clipPath id="clip0_25_228">
<rect width="24" height="24" fill="white"/>
</clipPath>
</defs>
</svg>
