<svg width="24" height="24" viewBox="0 0 24 24" fill="none" xmlns="http://www.w3.org/2000/svg">
<g clip-path="url(#clip0_25_203)">
<path d="M22.5002 15.4997C22.1024 15.4997 21.7209 15.6577 21.4396 15.939C21.1583 16.2203 21.0002 16.6019 21.0002 16.9997V18.4997C21.0002 19.1627 20.7369 19.7986 20.268 20.2674C19.7992 20.7363 19.1633 20.9997 18.5002 20.9997H17.0002C16.6024 20.9997 16.2209 21.1577 15.9396 21.439C15.6583 21.7203 15.5002 22.1018 15.5002 22.4997C15.5002 22.8975 15.6583 23.279 15.9396 23.5603C16.2209 23.8416 16.6024 23.9997 17.0002 23.9997H18.5002C19.9584 23.9981 21.3565 23.4181 22.3876 22.387C23.4187 21.3559 23.9987 19.9579 24.0002 18.4997V16.9997C24.0002 16.6019 23.8422 16.2203 23.5609 15.939C23.2796 15.6577 22.8981 15.4997 22.5002 15.4997Z" fill="#3E3E3E"/>
<path d="M1.5 8.5C1.89782 8.5 2.27936 8.34196 2.56066 8.06066C2.84196 7.77936 3 7.39782 3 7V5.5C3 4.83696 3.26339 4.20107 3.73223 3.73223C4.20107 3.26339 4.83696 3 5.5 3H7C7.39782 3 7.77936 2.84196 8.06066 2.56066C8.34196 2.27936 8.5 1.89782 8.5 1.5C8.5 1.10218 8.34196 0.720644 8.06066 0.43934C7.77936 0.158035 7.39782 0 7 0L5.5 0C4.0418 0.00158817 2.64377 0.581561 1.61267 1.61267C0.581561 2.64377 0.00158817 4.0418 0 5.5L0 7C0 7.39782 0.158035 7.77936 0.43934 8.06066C0.720644 8.34196 1.10218 8.5 1.5 8.5Z" fill="#3E3E3E"/>
<path d="M7 20.9997H5.5C4.83696 20.9997 4.20107 20.7363 3.73223 20.2674C3.26339 19.7986 3 19.1627 3 18.4997V16.9997C3 16.6019 2.84196 16.2203 2.56066 15.939C2.27936 15.6577 1.89782 15.4997 1.5 15.4997C1.10218 15.4997 0.720644 15.6577 0.43934 15.939C0.158035 16.2203 0 16.6019 0 16.9997L0 18.4997C0.00158817 19.9579 0.581561 21.3559 1.61267 22.387C2.64377 23.4181 4.0418 23.9981 5.5 23.9997H7C7.39782 23.9997 7.77936 23.8416 8.06066 23.5603C8.34196 23.279 8.5 22.8975 8.5 22.4997C8.5 22.1018 8.34196 21.7203 8.06066 21.439C7.77936 21.1577 7.39782 20.9997 7 20.9997Z" fill="#3E3E3E"/>
<path d="M18.5002 0H17.0002C16.6024 0 16.2209 0.158035 15.9396 0.43934C15.6583 0.720644 15.5002 1.10218 15.5002 1.5C15.5002 1.89782 15.6583 2.27936 15.9396 2.56066C16.2209 2.84196 16.6024 3 17.0002 3H18.5002C19.1633 3 19.7992 3.26339 20.268 3.73223C20.7369 4.20107 21.0002 4.83696 21.0002 5.5V7C21.0002 7.39782 21.1583 7.77936 21.4396 8.06066C21.7209 8.34196 22.1024 8.5 22.5002 8.5C22.8981 8.5 23.2796 8.34196 23.5609 8.06066C23.8422 7.77936 24.0002 7.39782 24.0002 7V5.5C23.9987 4.0418 23.4187 2.64377 22.3876 1.61267C21.3565 0.581561 19.9584 0.00158817 18.5002 0V0Z" fill="#3E3E3E"/>
<path d="M11.9998 11.0003C13.9328 11.0003 15.4998 9.4333 15.4998 7.50031C15.4998 5.56731 13.9328 4.00031 11.9998 4.00031C10.0668 4.00031 8.49976 5.56731 8.49976 7.50031C8.49976 9.4333 10.0668 11.0003 11.9998 11.0003Z" fill="#3E3E3E"/>
<path d="M6.10999 17.8476C6.08681 17.9904 6.09513 18.1366 6.13435 18.2759C6.17357 18.4151 6.24276 18.5441 6.33706 18.6539C6.43136 18.7636 6.5485 18.8514 6.68028 18.9111C6.81207 18.9709 6.95531 19.0011 7.09999 18.9996H16.9C17.0448 19.0013 17.1883 18.9714 17.3203 18.9118C17.4523 18.8522 17.5697 18.7644 17.6643 18.6547C17.7588 18.5449 17.8281 18.4158 17.8675 18.2764C17.9068 18.1369 17.9152 17.9906 17.892 17.8476C17.6265 16.4803 16.8936 15.248 15.8189 14.3619C14.7443 13.4759 13.3948 12.9913 12.002 12.9913C10.6091 12.9913 9.25969 13.4759 8.18504 14.3619C7.11038 15.248 6.37747 16.4803 6.11199 17.8476H6.10999Z" fill="#3E3E3E"/>
</g>
<defs>
<clipPath id="clip0_25_203">
<rect width="24" height="24" fill="white"/>
</clipPath>
</defs>
</svg>
