<svg width="32" height="32" viewBox="0 0 32 32" fill="none" xmlns="http://www.w3.org/2000/svg">
<path d="M10.3468 8.8685L14.0547 5.15934L14.0827 23.3346C14.0827 24.4391 14.9781 25.3345 16.0826 25.3345C17.1871 25.3345 18.0825 24.4391 18.0825 23.3346L18.0545 5.18203L21.741 8.86856C22.5084 9.66303 23.7744 9.68502 24.5689 8.91768C25.3634 8.15034 25.3854 6.88427 24.618 6.0898C24.6019 6.07312 24.5855 6.05674 24.5689 6.04068L20.2864 1.75818C17.9434 -0.584909 14.1445 -0.584909 11.8014 1.75812L11.8014 1.75818L7.51894 6.04062C6.7516 6.83508 6.7736 8.10116 7.56806 8.8685C8.34309 9.61703 9.57179 9.61703 10.3468 8.8685Z" fill="#9F9F9F"/>
<path d="M29.9992 19.3337C28.8947 19.3337 27.9993 20.2291 27.9993 21.3337V27.4547C27.9985 27.7556 27.7549 27.9993 27.454 28H4.54561C4.24474 27.9992 4.001 27.7556 4.00032 27.4547V21.3337C4.00032 20.2291 3.10492 19.3337 2.0004 19.3337C0.895887 19.3337 0.000488281 20.2291 0.000488281 21.3337V27.4547C0.00342565 29.9637 2.03665 31.9969 4.54561 31.9998H27.4539C29.963 31.9969 31.9961 29.9636 31.9991 27.4547V21.3337C31.9991 20.2291 31.1037 19.3337 29.9992 19.3337Z" fill="#9F9F9F"/>
</svg>
