<svg width="16" height="24" viewBox="0 0 16 24" fill="none" xmlns="http://www.w3.org/2000/svg">
<path d="M7.45248 14.0188C3.19075 14.404 -0.0560941 18.0051 0.000484069 22.2838V22.5008C0.000484069 23.3292 0.672062 24.0008 1.50048 24.0008C2.32891 24.0008 3.00048 23.3292 3.00048 22.5008V22.2238C2.95539 19.5967 4.89414 17.3564 7.50048 17.0238C10.2517 16.751 12.7032 18.7602 12.976 21.5114C12.9922 21.6741 13.0003 21.8374 13.0005 22.0008V22.5008C13.0005 23.3292 13.672 24.0008 14.5005 24.0008C15.3289 24.0008 16.0005 23.3292 16.0005 22.5008V22.0008C15.9956 17.5775 12.4059 13.9957 7.98264 14.0006C7.80578 14.0008 7.62897 14.0069 7.45248 14.0188Z" fill="#3E3E3E"/>
<path d="M8.00049 12C11.3142 12 14.0005 9.31369 14.0005 6C14.0005 2.68631 11.3142 0 8.00049 0C4.6868 0 2.00049 2.68631 2.00049 6C2.00377 9.31233 4.68816 11.9967 8.00049 12ZM8.00049 3C9.65733 3 11.0005 4.34316 11.0005 6C11.0005 7.65684 9.65733 9 8.00049 9C6.34364 9 5.00049 7.65684 5.00049 6C5.00049 4.34316 6.34364 3 8.00049 3Z" fill="#3E3E3E"/>
</svg>
