<svg width="24" height="24" viewBox="0 0 24 24" fill="none" xmlns="http://www.w3.org/2000/svg">
<path d="M14.5001 12.9995C14.2034 12.9995 13.9134 12.9116 13.6667 12.7467C13.42 12.5819 13.2278 12.3477 13.1142 12.0736C13.0007 11.7995 12.971 11.4979 13.0289 11.2069C13.0868 10.9159 13.2296 10.6487 13.4394 10.4389C13.6492 10.2291 13.9165 10.0862 14.2074 10.0284C14.4984 9.97048 14.8 10.0002 15.0741 10.1137C15.3482 10.2273 15.5825 10.4195 15.7473 10.6662C15.9121 10.9129 16.0001 11.2029 16.0001 11.4995C16.0001 11.8974 15.842 12.2789 15.5607 12.5602C15.2794 12.8415 14.8979 12.9995 14.5001 12.9995ZM23.9211 17.7705C24.0539 18.5345 24.0181 19.3183 23.816 20.067C23.614 20.8157 23.2507 21.5111 22.7516 22.1046C22.2524 22.698 21.6295 23.1752 20.9266 23.5025C20.2236 23.8298 19.4575 23.9995 18.6821 23.9995H15.5001C15.1022 23.9995 14.7207 23.8415 14.4394 23.5602C14.1581 23.2789 14.0001 22.8974 14.0001 22.4995V20.7255C13.3468 20.8968 12.6753 20.9888 12.0001 20.9995C11.3236 20.9975 10.6507 20.9026 10.0001 20.7175V22.4995C10.0001 22.8974 9.84203 23.2789 9.56073 23.5602C9.27942 23.8415 8.89789 23.9995 8.50007 23.9995H5.31707C4.5417 23.9993 3.77575 23.8296 3.0729 23.5022C2.37004 23.1748 1.74728 22.6976 1.24825 22.1042C0.749227 21.5108 0.386004 20.8154 0.184036 20.0668C-0.0179314 19.3182 -0.0537579 18.5344 0.0790669 17.7705L0.479067 15.7465C0.599116 15.0912 0.911805 14.4865 1.37719 14.0097C1.84257 13.5329 2.43953 13.2056 3.09179 13.0698C3.74406 12.9339 4.42203 12.9955 5.03909 13.2468C5.65616 13.4981 6.1843 13.9276 6.55607 14.4805C7.65807 16.0995 9.74507 17.9995 12.0001 17.9995C13.3691 17.9288 14.6893 17.4674 15.8043 16.6699C16.9194 15.8725 17.7827 14.7723 18.2921 13.4995C18.3955 13.207 18.5872 12.9537 18.8406 12.7746C19.094 12.5955 19.3967 12.4994 19.7071 12.4995H20.0261C20.2839 12.4974 20.5306 12.394 20.7128 12.2116C20.8951 12.0292 20.9982 11.7824 21.0001 11.5245C21.0001 11.3173 20.9273 11.1167 20.7944 10.9576C20.6615 10.7986 20.477 10.6913 20.2731 10.6545C19.9542 10.5965 19.6627 10.4367 19.4422 10.1991C19.2217 9.96149 19.0842 9.65887 19.0501 9.33654C18.8683 7.59477 18.0466 5.98242 16.7442 4.81172C15.4418 3.64102 13.7513 2.99528 12.0001 2.99954C7.00007 2.99954 5.68107 5.94454 4.52007 8.54354L4.39507 8.82254C7.04882 8.45938 9.52259 7.27547 11.4701 5.43654C11.6082 5.29127 11.7741 5.17516 11.9579 5.09509C12.1417 5.01502 12.3397 4.9726 12.5401 4.97035C12.7406 4.96809 12.9395 5.00604 13.125 5.08196C13.3106 5.15788 13.479 5.27022 13.6204 5.41234C13.7618 5.55447 13.8733 5.7235 13.9482 5.90944C14.0232 6.09538 14.0601 6.29446 14.0568 6.49491C14.0535 6.69536 14.0101 6.89312 13.929 7.07649C13.848 7.25987 13.7311 7.42514 13.5851 7.56254C12.5477 8.58716 11.3592 9.4465 10.0611 10.1105C10.3375 10.2202 10.5753 10.4092 10.7445 10.6537C10.9137 10.8983 11.0067 11.1875 11.0118 11.4849C11.0168 11.7822 10.9338 12.0744 10.773 12.3246C10.6122 12.5748 10.381 12.7718 10.1084 12.8908C9.83585 13.0097 9.53416 13.0453 9.24139 12.9931C8.94862 12.9408 8.67787 12.8031 8.46329 12.5972C8.24871 12.3912 8.09989 12.1264 8.03561 11.836C7.97132 11.5457 7.99445 11.2428 8.10207 10.9655C5.95044 11.7391 3.66974 12.0902 1.38507 11.9995C1.0636 11.9776 0.757755 11.8527 0.512803 11.6434C0.26785 11.434 0.096815 11.1514 0.0250179 10.8373C-0.0467793 10.5232 -0.0155217 10.1943 0.114163 9.89931C0.243848 9.60434 0.465066 9.35898 0.745067 9.19954C1.18539 8.62975 1.53486 7.99524 1.78107 7.31854C3.00007 4.58154 5.05307 -0.000460274 12.0001 -0.000460274C14.3267 -0.00594728 16.5834 0.794948 18.386 2.26593C20.1886 3.73691 21.4258 5.78708 21.8871 8.06754C22.5228 8.39301 23.0565 8.88758 23.4293 9.49681C23.8021 10.106 23.9996 10.8063 24.0001 11.5205C23.999 12.3555 23.7321 13.1684 23.2381 13.8415L23.9211 17.7705ZM7.00007 19.2135C5.86131 18.3681 4.87228 17.3379 4.07407 16.1655C4.04349 16.1136 3.99952 16.0707 3.94676 16.0415C3.89399 16.0123 3.83435 15.9978 3.77407 15.9995C3.69101 16.0018 3.61136 16.033 3.5489 16.0878C3.48644 16.1426 3.44511 16.2175 3.43207 16.2995L3.03207 18.3225C2.98062 18.6529 3.00118 18.9904 3.09233 19.3121C3.18348 19.6337 3.34307 19.9319 3.56017 20.1861C3.77727 20.4404 4.04676 20.6447 4.35017 20.7851C4.65358 20.9255 4.98375 20.9986 5.31807 20.9995H7.00007V19.2135ZM20.9651 18.2835L20.5271 15.7655C19.6769 17.2697 18.4646 18.5377 17.0001 19.4545V20.9995H18.6811C19.019 20.9994 19.3529 20.9254 19.6593 20.7827C19.9657 20.64 20.2371 20.432 20.4547 20.1734C20.6723 19.9148 20.8307 19.6117 20.9188 19.2854C21.007 18.9592 21.0228 18.6176 20.9651 18.2845V18.2835Z" fill="#C5C5C5"/>
</svg>
