<svg width="24" height="25" viewBox="0 0 24 25" fill="none" xmlns="http://www.w3.org/2000/svg">
<g clip-path="url(#clip0_462_1118)">
<path d="M22.483 11.884C22.177 6.255 16.978 1.5 11.131 1.5H11.008C10.7824 1.19101 10.4872 0.939476 10.1464 0.765748C9.80554 0.592021 9.42857 0.500982 9.046 0.5L7.363 0.5C6.20609 0.501324 5.09696 0.961558 4.279 1.77971C3.46104 2.59786 3.00106 3.70709 3 4.864V20.136C3.00106 21.2929 3.46104 22.4021 4.279 23.2203C5.09696 24.0384 6.20609 24.4987 7.363 24.5H9.046C9.42857 24.499 9.80554 24.408 10.1464 24.2343C10.4872 24.0605 10.7824 23.809 11.008 23.5H11.454C12.9589 23.4993 14.4479 23.193 15.831 22.5998C17.214 22.0066 18.4622 21.1388 19.5 20.049C20.5307 18.9655 21.3275 17.6814 21.8407 16.2767C22.3539 14.8721 22.5725 13.3768 22.483 11.884ZM17.317 17.984C16.5646 18.7831 15.6558 19.4189 14.6472 19.8518C13.6385 20.2846 12.5516 20.5053 11.454 20.5H10C9.68967 20.4998 9.38694 20.5959 9.13351 20.775C8.88008 20.9541 8.68844 21.2074 8.585 21.5H7.363C7.0015 21.4995 6.65497 21.3556 6.39945 21.0998C6.14392 20.8441 6.00026 20.4975 6 20.136V19.5H6.5C6.89782 19.5 7.27936 19.342 7.56066 19.0607C7.84196 18.7794 8 18.3978 8 18C8 17.6022 7.84196 17.2206 7.56066 16.9393C7.27936 16.658 6.89782 16.5 6.5 16.5H6V14H6.5C6.89782 14 7.27936 13.842 7.56066 13.5607C7.84196 13.2794 8 12.8978 8 12.5C8 12.1022 7.84196 11.7206 7.56066 11.4393C7.27936 11.158 6.89782 11 6.5 11H6V8.5H6.5C6.89782 8.5 7.27936 8.34196 7.56066 8.06066C7.84196 7.77936 8 7.39782 8 7C8 6.60218 7.84196 6.22064 7.56066 5.93934C7.27936 5.65804 6.89782 5.5 6.5 5.5H6V4.864C6.00026 4.5025 6.14392 4.15587 6.39945 3.90015C6.65497 3.64444 7.0015 3.50053 7.363 3.5H8.585C8.68844 3.79258 8.88008 4.04587 9.13351 4.22497C9.38694 4.40407 9.68967 4.50016 10 4.5H11.131C15.363 4.5 19.269 8.027 19.487 12.047C19.5525 13.1329 19.3936 14.2206 19.0203 15.2424C18.647 16.2642 18.0671 17.1981 17.317 17.986V17.984Z" fill="#3E3E3E"/>
<path d="M12 8.50049C11.7348 8.50049 11.4804 8.60585 11.2929 8.79338C11.1054 8.98092 11 9.23527 11 9.50049V15.5155C11.0017 15.7704 11.1006 16.015 11.2767 16.1994C11.4527 16.3838 11.6925 16.494 11.947 16.5075C12.9424 16.4974 13.9002 16.1261 14.6423 15.4626C15.3843 14.799 15.8601 13.8886 15.981 12.9005C16.0359 12.3444 15.974 11.7829 15.799 11.2522C15.624 10.7214 15.3399 10.2332 14.965 9.81879C14.5901 9.4044 14.1326 9.07303 13.6219 8.84599C13.1113 8.61896 12.5588 8.50127 12 8.50049Z" fill="#3E3E3E"/>
</g>
<defs>
<clipPath id="clip0_462_1118">
<rect width="24" height="24" fill="white" transform="translate(0 0.5)"/>
</clipPath>
</defs>
</svg>
